<?xml version="1.0" encoding="UTF-8"?><svg xmlns="http://www.w3.org/2000/svg" xmlns:xlink="http://www.w3.org/1999/xlink" height="857.6" preserveAspectRatio="xMidYMid meet" version="1.0" viewBox="-1.7 0.0 896.5 857.6" width="896.5" zoomAndPan="magnify"><g><g><path d="M5.4844031,199.2609863c4.0439754-7.3710327,9.822998-13.3930664,15.79599-16.842041 c4.2720032-2.4659424,8.6409912-3.6159668,12.5469952-3.0019531c1.9720154-19.1120605,13.9019775-40.177002,28.7450256-51.2630615 c1.5779762-1.177002,3.1569557-2.2179565,4.7249794-3.1239624c14.835022-8.5650024,28.7980042-4.9949951,33.3300171,9.9900513 c4.4099731-4.7900391,9.0439758-8.5490112,13.5779724-11.1670532c8.263031-4.7699585,16.196991-5.757019,21.8640137-2.3120117 c10.1470032,6.2000122,8.1520081,23.6890259,7.9019775,25.7630005L2.2113926,229.1489258 C-1.678622,221.8519287-0.3436,209.9239502,5.4844031,199.2609863L5.4844031,199.2609863z" fill="#F4F4F4"/></g><g><path d="M135.7243958,208.6089478c6.1369934-11.1879883,14.9089966-20.3279419,23.9719849-25.5609741 c6.4830322-3.743042,13.1140137-5.4869995,19.0429993-4.5570068c2.9920044-29.0050049,21.098999-60.973999,43.6250305-77.7979736 c2.3950195-1.7880249,4.7909851-3.368042,7.1690063-4.7420044c22.5159912-13.000061,43.7069702-7.5809937,50.5849609,15.1599731 c6.6920166-7.269043,13.7260132-12.973999,20.6060181-16.9469604c12.5410156-7.2400513,24.5820312-8.7369995,33.1829834-3.5090332 c15.3980103,9.4100342,12.3710327,35.9519653,11.9930115,39.098999L130.7573853,253.96698 C124.8533936,242.8939819,126.8803711,224.7919922,135.7243958,208.6089478L135.7243958,208.6089478z" fill="#F4F4F4"/></g><g><path d="M436.2264099 25.7839966L377.1593933 398.1439209 812.1633911 649.2929688 871.2283325 276.9329834 436.2264099 25.7839966" fill="#FFF"/></g><g><path d="M437.1394348,27.697998L869.918396,277.5609741l-58.6669922,369.8190308L378.4764099,397.5169678 L437.1394348,27.697998L437.1394348,27.697998z M811.5634155,650.3339844 c0.1859741,0.1069946,0.3919678,0.1610107,0.6009521,0.1610107c0.1760254,0,0.3530273-0.0390015,0.5150146-0.1170044 c0.3599854-0.1690674,0.6079712-0.5039673,0.6709595-0.8960571l59.0680542-372.3609619 c0.0800171-0.4899902-0.1600952-0.9790039-0.5900879-1.2280273L436.8274231,24.7439575 c-0.34198-0.1959839-0.7620239-0.2160034-1.1160278-0.0440063c-0.3590088,0.1700439-0.6079712,0.5059814-0.6709595,0.8959961 l-59.0670166,372.3609619c-0.0770874,0.4901123,0.1549683,0.9790649,0.5859985,1.2280884L811.5634155,650.3339844 L811.5634155,650.3339844z" fill="#0C5E96"/></g><g><path d="M828.0703735 662.3579102L827.5753784 664.2169189 826.5703735 666.5559082 825.2744141 668.5769653 824.9313354 668.9420166 826.7453613 669.9890137 826.793396 669.9799805 828.7633667 669.1450195 830.5484009 667.8829956 832.1054077 666.2230225 833.4003296 664.2030029 834.4063721 661.8649902 834.9013672 660.0050049 835.4663696 656.4509888 894.5283813 284.0889893 894.8184204 281.3289795 894.8184204 278.4539795 894.5283813 275.5109863 893.9484253 272.5529785 893.1083374 269.6309814 892.0083618 266.7919922 890.668396 264.0859985 889.1183472 261.5609741 887.3683472 259.256958 885.4683228 257.2160034 883.4384155 255.4729614 881.3184204 254.0559692 443.4613953 1.2600098 441.846344 0.5769653 439.5863342 0.0629883 437.3734436 0 435.2583923 0.3909912 433.287384 1.2259521 431.6483459 2.3850098 432.7564392 2.4160156 435.0163879 2.9309692 436.6303406 3.6129761 874.4883423 256.4089355 876.6083984 257.8259888 878.6383667 259.5700073 880.5383911 261.6109619 882.2883911 263.9140015 883.8384399 266.4400024 885.1782837 269.1449585 886.2783813 271.9839478 887.1183472 274.9069824 887.6984253 277.8649902 887.9883423 280.8070068 887.9883423 283.6820068 887.6984253 286.4429932 828.0703735 662.3579102z" fill="#1D6ECE"/></g><g><path d="M361.7973938 400.0230103L362.365387 401.8779297 362.5213928 402.3879395 824.6773071 669.2149658 824.9313354 668.9420166 825.2744141 668.5769653 826.5703735 666.5559082 827.5753784 664.2169189 828.0703735 662.3579102 887.6984253 286.4419556 887.9883423 283.6820068 887.9883423 280.8070068 887.6984253 277.8649902 887.1183472 274.9069824 886.2783813 271.9829712 885.1782837 269.1449585 883.8384399 266.4400024 882.2883911 263.9140015 880.5383911 261.6109619 878.6383667 259.5700073 876.6083984 257.8259888 874.4883423 256.4089355 436.6303406 3.6129761 435.0163879 2.9309692 432.7564392 2.4160156 431.6483459 2.3850098 430.5434265 2.3529663 428.4273987 2.7439575 426.4563904 3.5789795 424.6734314 4.8409424 423.1164246 6.5 421.8194275 8.5219727 420.8143616 10.8599854 420.3194275 12.7189941 360.688385 388.6350098 360.5993958 391.4089355 360.7563782 394.2579346 361.1573792 397.1419678 361.7973938 400.0230103" fill="#28A5EA"/></g><g><path d="M436.2264099 25.7839966L377.1593933 398.1439209 812.1633911 649.2929688 871.2283325 276.9329834 436.2264099 25.7839966" fill="#FFF"/></g><g><path d="M723.6494141,737.4909668l13.9369507-8.0470581v4.828064l-13.9369507,8.0460205V737.4909668 L723.6494141,737.4909668z M750.1283569,722.2030029l13.9360352-8.0460815v4.8280029l-13.9360352,8.0449829V722.2030029 L750.1283569,722.2030029z M791.7874146,699.2139282l9.7549438-5.631958v4.5060425l-9.7549438,5.6309814V699.2139282 L791.7874146,699.2139282z M512.2733154,856.2679443l1.1719971,0.5800781l1.2520142,0.4198608l1.3259888,0.2700195 l1.3920898,0.1100464l1.447937-0.0600586l1.4970703-0.2098389l1.5359497-0.3702393l1.5669556-0.5297852l1.5860596-0.6801758 l79.3129272-37.7398682l199.7330933-115.3129883l2.3309937-1.4660645l2.3109741-1.6939087l2.276001-1.9100342l2.2209473-2.1079712 l2.1490479-2.2921143l2.0579834-2.4559937l1.9520264-2.6029663l1.8319702-2.7259521l1.6959839-2.8300171L824.4674072,679.75 l1.3839111-2.9680176l1.2109985-3.0020752v-3.6079712L509.3153992,853.6280518l0.8870239,1.0198975l0.9890137,0.8799438 L512.2733154,856.2679443L512.2733154,856.2679443z" fill="#1D6ECE"/></g><g><path d="M42.8493919,586.2519531L510.7073669,856.368042 c0.1519775,0.0899658,0.3179932,0.1299438,0.4830322,0.1299438c0.3019409,0,0.5970459-0.1399536,0.7850342-0.3999634 c0.2899475-0.4000854,0.22995-0.960144-0.1390381-1.2900391l-0.9889526-0.8800659l-0.1610107-0.1199951L42.8294029,583.6929932 c-0.4300232-0.2490234-0.9780273-0.1320801-1.2690125,0.2709961c-0.289978,0.4029541-0.2289734,0.9589844,0.1400146,1.289978 l0.9889832,0.8810425L42.8493919,586.2519531L42.8493919,586.2519531z" fill="#1D6ECE"/></g><g><path d="M371.9394226,741.9309692l-139.1870117-80.3610229l110.2119751-63.6310425l139.1880493,80.3600464 L371.9394226,741.9309692L371.9394226,741.9309692z M359.2073669,432.4359131L770.9783936,670.171936l-130.8309937,75.5370483 l-411.7720032-237.73703L359.2073669,432.4359131L359.2073669,432.4359131z M827.0623169,670.171936l-0.3169556-0.1829224 l-1.8140259-1.0469971l-0.2540283,0.2719116L362.5213928,402.3879395l-0.1560059-0.5089722l-3.15802-1.8239746 L41.4583702,583.506958l467.8570251,270.1210938L827.0623169,670.171936L827.0623169,670.171936z" fill="#28A5EA"/></g><g><path d="M342.964386 597.9389038L232.7524109 661.5699463 371.9394226 741.9309692 482.1524353 678.2989502 342.964386 597.9389038z" fill="#1D6ECE"/></g><g><path d="M359.2073669 432.4359131L228.3753967 507.9719543 640.1473999 745.7089844 770.9783936 670.171936 359.2073669 432.4359131z" fill="#1D6ECE"/></g><g><path d="M723.6494141 737.4909668L723.6494141 742.3179932 737.5863647 734.2719727 737.5863647 729.4439087 723.6494141 737.4909668z" fill="#FFF"/></g><g><path d="M750.1283569 722.2030029L750.1283569 727.0299072 764.0643921 718.9849243 764.0643921 714.1569214 750.1283569 722.2030029z" fill="#FFF"/></g><g><path d="M791.7874146 699.2139282L791.7874146 703.7189941 801.5423584 698.0880127 801.5423584 693.5819702 791.7874146 699.2139282z" fill="#FFF"/></g><g><defs><g><path d="M809.760376 649.2929688L868.8283081 276.9329834 433.8254089 25.7839966 374.7583923 398.1439209 809.760376 649.2929688" id="a"/></g></defs><clipPath id="b"><use overflow="visible" xlink:actuate="onLoad" xlink:href="#a" xlink:show="embed" xlink:type="simple" xmlns:xlink="http://www.w3.org/1999/xlink"/></clipPath><g><path clip-path="url(#b)" d="M848.6663208 243.2420044L783.9284058 651.362915 785.1152954 651.5499878 849.8533325 243.4299316 848.6663208 243.2420044z" fill="#EEE"/></g><g><path clip-path="url(#b)" d="M816.2973022 225.0859985L751.5553589 633.2069702 752.7433472 633.3939209 817.484375 225.2739258 816.2973022 225.0859985z" fill="#EEE"/></g><g><path clip-path="url(#b)" d="M783.9284058 206.9279785L719.1863403 615.0499878 720.3733521 615.2379761 785.1152954 207.1159668 783.9284058 206.9279785z" fill="#EEE"/></g><g><path clip-path="url(#b)" d="M751.5553589 188.7719727L686.8173828 596.8919678 688.0043945 597.0799561 752.7433472 188.9599609 751.5553589 188.7719727z" fill="#EEE"/></g><g><path clip-path="url(#b)" d="M719.1863403 170.6159668L654.4473877 578.7359619 655.635376 578.9240112 720.3733521 170.8029785 719.1863403 170.6159668" fill="#EEE"/></g><g><path clip-path="url(#b)" d="M686.8173828 152.4589844L622.076355 560.5789795 623.2623901 560.7669067 688.0043945 152.6459961 686.8173828 152.4589844" fill="#EEE"/></g><g><path clip-path="url(#b)" d="M654.4473877 134.302002L589.7073975 542.4219971 590.8933716 542.6099854 655.635376 134.4899902 654.4473877 134.302002" fill="#EEE"/></g><g><path clip-path="url(#b)" d="M622.076355 116.1449585L557.3373413 524.263916 558.524353 524.4519043 623.2623901 116.3319702 622.076355 116.1449585" fill="#EEE"/></g><g><path clip-path="url(#b)" d="M589.7073975 97.9889526L524.9673462 506.1089783 526.1553345 506.2969971 590.8933716 98.1759644 589.7073975 97.9889526" fill="#EEE"/></g><g><path clip-path="url(#b)" d="M557.3373413 79.8309326L492.596405 487.9519653 493.7834167 488.1389771 558.524353 80.0179443 557.3373413 79.8309326" fill="#EEE"/></g><g><path clip-path="url(#b)" d="M524.9673462 61.6739502L460.2264099 469.7949829 461.4143982 469.9829102 526.1553345 61.8619385 524.9673462 61.6739502" fill="#EEE"/></g><g><path clip-path="url(#b)" d="M492.596405 43.5179443L427.8573303 451.6369629 429.0444031 451.8259888 493.7834167 43.7059326 492.596405 43.5179443" fill="#EEE"/></g><g><path clip-path="url(#b)" d="M460.2264099 25.3609619L395.4883728 433.4810181 396.6754456 433.6699829 461.4143982 25.5479736 460.2264099 25.3609619z" fill="#EEE"/></g><g><path clip-path="url(#b)" d="M874.0884399 316.2020264L417.0694275 52.3429565 416.4693298 53.381958 873.4884033 317.2409668 874.0884399 316.2020264z" fill="#EEE"/></g><g><path clip-path="url(#b)" d="M411.4884338 90.7779541L410.8874207 91.8169556 867.9083862 355.6749878 868.5082397 354.6359863 411.4884338 90.7779541" fill="#EEE"/></g><g><path clip-path="url(#b)" d="M405.9104309 129.2109985L405.3094177 130.25 862.3284302 394.1079712 862.9284058 393.0689697 405.9104309 129.2109985" fill="#EEE"/></g><g><path clip-path="url(#b)" d="M400.3323669 167.6439209L399.7314148 168.6829834 856.7484131 432.5419922 857.3483887 431.5020142 400.3323669 167.6439209" fill="#EEE"/></g><g><path clip-path="url(#b)" d="M394.754364 206.0780029L394.1534119 207.1169434 851.1724243 470.9759521 851.7723999 469.9370117 394.754364 206.0780029z" fill="#EEE"/></g><g><path clip-path="url(#b)" d="M389.1763611 244.5109863L388.5754089 245.5499878 845.5944214 509.4099731 846.194397 508.3709106 389.1763611 244.5109863z" fill="#EEE"/></g><g><path clip-path="url(#b)" d="M383.5974426 282.9459839L382.997406 283.9849854 840.0123901 547.8439331 840.6133423 546.802002 383.5974426 282.9459839z" fill="#EEE"/></g><g><path clip-path="url(#b)" d="M378.0194397 321.3789673L377.4194031 322.4179688 834.4343872 586.2769775 835.0353394 585.2360229 378.0194397 321.3789673z" fill="#EEE"/></g><g><path clip-path="url(#b)" d="M372.4403992 359.8119507L371.8404236 360.8510132 828.8563843 624.7130127 829.4573364 623.671936 372.4403992 359.8119507z" fill="#EEE"/></g></g><g><path d="M772.8023682,568.4719238c4.65802,2.6890869,10.5629883-0.1279297,11.4059448-5.4379272 l27.8780518-175.7390137l-242.1999512-139.835022l-28.7990112,181.5480347 c-0.4970703,3.1359863,0.9890137,6.2539062,3.7389526,7.8410034L772.8023682,568.4719238" fill="#C5EDFF"/></g><g><path d="M807.2993774,362.0789795L579.8433228,230.756958 c-3.2280273-1.8629761-7.3219604,0.0889893-7.9059448,3.7700195l-2.0509644,12.9329834l242.1999512,139.835022 l1.8049927-11.3880005C814.7693481,370.3770142,812.1473999,364.8779907,807.2993774,362.0789795" fill="#5576FF"/></g><g><defs><g><path d="M784.208313,563.0339966l27.8780518-175.7390137 L569.8864136,247.4609375l-28.7990112,181.5470581c-0.4970703,3.1359863,0.9890137,6.2539062,3.7389526,7.8410034 l227.9760132,131.6229248C777.4603882,571.1610107,783.366394,568.3449707,784.208313,563.0339966" id="c"/></g></defs><clipPath id="d"><use overflow="visible" xlink:actuate="onLoad" xlink:href="#c" xlink:show="embed" xlink:type="simple" xmlns:xlink="http://www.w3.org/1999/xlink"/></clipPath><g><path clip-path="url(#d)" d="M806.6513062,487.6209717 c0.1900635,0.1089478,0.3970947,0.1610107,0.6010742,0.1610107c0.4130249,0,0.8179932-0.2160034,1.0390015-0.6010132 c0.3329468-0.5750122,0.1359863-1.309021-0.4390259-1.6410522L540.9544067,331.4459839 c-0.5740967-0.3270264-1.309082-0.1340332-1.6400757,0.4400024c-0.3329468,0.5750122-0.1350098,1.309021,0.4390259,1.6400146 L806.6513062,487.6209717L806.6513062,487.6209717z" fill="#FFE700"/></g><g><path clip-path="url(#d)" d="M636.0783691,375.6399536 c0.2650146-11.2729492,0.5390015-22.9310303,0.3500366-33.0929565c-0.1690674-9.0860596-0.7000122-16.1080322-1.6220093-21.467041 c-0.5510864-3.2089844-1.2460327-5.8400269-2.1210327-8.0460205c-1.05896-2.6719971-2.43396-4.7059326-4.0789795-6.0429688 c-1.5980225-1.2999878-3.3700562-1.9420166-5.3040771-1.9209595c-2.8369751,0.098938-5.4649658,1.7559204-8.0319214,5.0669556 c-2.8870239,3.7240601-5.8810425,9.7090454-9.7040405,19.4099731c-1.743042,4.4220581-3.506958,9.223999-5.2129517,13.868042 c-2.8040771,7.6419678-5.7090454,15.5419922-8.5189819,21.75c-2.3110962,5.1220093-4.3770142,8.6569824-6.144043,10.5039673 c-0.7550659,0.7930298-1.2850342,1.0700684-1.3769531,1.1119995c0-0.0009766-0.0980225-0.032959-0.2830811-0.1809692 c-1.2579346-1.0290527-2.3459473-2.5869751-3.3289185-4.7609863c-1.6420288-3.6400146-2.9041138-8.9710693-3.8630371-16.3040771 c-0.6239624-4.7349243-1.0819702-9.9269409-1.5249634-14.947937c-0.4980469-5.6129761-1.0080566-11.4159546-1.7620239-16.7649536 c-0.84198-5.9440918-1.8510742-10.4770508-3.1760254-14.2640381c-1.8809814-5.382019-4.34198-8.8140259-7.5210571-10.4890137 c-1.6409912-0.8690186-3.6689453-0.3449707-4.6859741,1.197998c-1.0239868,1.5449829-0.7059937,3.6119995,0.7290649,4.7819824 c1.2520142,1.019043,2.3389893,2.5740356,3.3239136,4.757019c1.6590576,3.6699829,2.8850708,8.8480225,3.8640747,16.2960205 c0.6209717,4.7249146,1.0789795,9.9039917,1.5189819,14.9130249c0.4969482,5.6268921,1.0120239,11.4439697,1.7669678,16.8009644 c0.8450317,5.9620361,1.8529663,10.4949341,3.1720581,14.2599487c1.7099609,4.8980713,3.9429321,8.4199829,6.8280029,10.7670898 c1.6109619,1.3118896,3.4060059,1.9639282,5.2779541,1.9129639c2.8430176-0.0819702,5.4780273-1.7359619,8.0550537-5.0579834 c2.8859863-3.717041,5.8789062-9.7059937,9.7069702-19.4180298c1.7299805-4.3950195,3.4810181-9.164978,5.1779785-13.7769775 c2.8169556-7.6710205,5.7319946-15.6040649,8.5540161-21.8370361c2.31604-5.1259766,4.381958-8.6589355,6.1420288-10.5 c0.9099731-0.9520264,1.4049683-1.0939941,1.3859253-1.1119995c0.0209961,0.0079956,0.1150513,0.0490112,0.2789917,0.1830444 c0.2839966,0.2319336,0.736084,0.7439575,1.2650757,1.8560181c0.6959229,1.4729614,1.6759033,4.3869629,2.3939209,9.9129028 c0.8920288,6.8599854,1.2479858,16.3790894,1.1190186,29.9541016c-0.0629883,6.5219116-0.2219238,13.3369751-0.3840332,20.1519775 c-0.2648926,11.2420044-0.5389404,22.8699951-0.3540039,33.007019c0.1730957,9.0869141,0.7030029,16.1079102,1.6230469,21.4719849 c0.5630493,3.2399902,1.257019,5.867981,2.1200562,8.0390015c1.0609741,2.6699829,2.4329834,4.7039185,4.0769653,6.0410156 c1.6159668,1.3169556,3.4559326,1.9678955,5.2850342,1.9179077c2.8430176-0.0819702,5.4779053-1.737915,8.0509644-5.0609741 c2.8849487-3.7180176,5.8780518-9.7069702,9.7070312-19.4159546c1.7470093-4.4310303,3.513916-9.2460327,5.223999-13.901001 c2.8029175-7.6270752,5.7000122-15.5139771,8.5059814-21.710083c2.3120117-5.1239624,4.382019-8.6599731,6.1430054-10.5059204 c0.9110107-0.9509888,1.4030151-1.09198,1.3869629-1.1119995c0.0209961,0.0089722,0.1140137,0.0510254,0.276062,0.1809692 c1.1658936,0.9540405,2.2189331,2.6639404,3.1339722,5.0809937c1.5809326,4.1890259,2.710022,10.5290527,3.4509888,19.3829956 c0.4760132,5.6730347,0.7649536,11.9140625,1.0460205,17.9499512c0.3099976,6.7210083,0.6339722,13.6720581,1.2179565,20.007019 c0.6519775,7.0140991,1.5180664,12.2810669,2.7260132,16.585022c0.7410278,2.6260376,1.59198,4.8170166,2.5960083,6.6980591 c1.1729736,2.2009277,2.5719604,3.9699707,4.1530151,5.2589722c3.3120117,2.69104,6.3639526,2.8120117,8.3569946,2.4429932 c4.7180176-0.8859863,8.190979-5.2400513,10.6970215-8.9400024c1.9659424-2.9179688,3.8699951-6.3270264,5.7089844-9.6230469 c1.9389648-3.4689941,3.9420166-7.0559692,5.901001-9.8339233c2.2449951-3.1829834,3.7879639-4.3549805,4.6879883-4.7769775 c0.7020264-0.3320923,1.3900146-0.5170288,2.769043,0.6008911c1.1679688,0.9540405,2.2209473,2.6651001,3.1359253,5.0810547 c1.5800171,4.1890259,2.7090454,10.5299683,3.4509888,19.381958c0.4730225,5.6570435,0.762085,11.8800049,1.0410156,17.8989868 c0.3120117,6.7400513,0.6350098,13.7091064,1.2220459,20.0600586c0.6529541,7.0149536,1.5179443,12.2820129,2.7259521,16.5840454 c0.7409668,2.6199341,1.5910645,4.8129883,2.5970459,6.7069702c1.1660156,2.1879883,2.5609131,3.9539795,4.1569824,5.2520142 c3.2059326,2.6099854,6.44104,3.921936,9.6450195,3.921936c1.0529785,0,2.1069946-0.1409912,3.151001-0.4269409 c3.5059814-0.9400024,6.381958-3.2990112,8.9189453-5.3770142c1.1560059-0.9500122,2.2490234-1.8460083,3.3380737-2.5700073 c1.5588989-1.0440063,2.7699585-1.5159912,3.9359741-1.5279541c1.3670044,0.0289307,3.1340332,0.6009521,5.4799805,1.8879395 c1.632019,0.8919678,3.6800537,0.3999634,4.7210083-1.1459351c1.0419922-1.5440674,0.7329712-3.6290283-0.7109985-4.8050537 c-4.2550049-3.4719849-8.5560303-4.651001-12.8120117-3.5039673c-3.4949951,0.9469604-6.3659668,3.2999878-8.9000244,5.3789673 c-1.1589355,0.9499512-2.2549438,1.8479614-3.3449707,2.5750122c-1.5620117,1.0460205-2.7699585,1.5180054-3.9190674,1.5280151 h-0.0379639c-1.4259644,0-3.0019531-0.7160645-4.8049316-2.1750488c-1.1650391-0.9539795-2.2189941-2.6619263-3.1330566-5.0859375 c-1.5859375-4.1850281-2.7149658-10.5230713-3.4510498-19.3780518 c-0.4789429-5.6820068-0.7689819-11.9310303-1.0489502-17.9750366c-0.3110352-6.7149658-0.6359863-13.657959-1.2200317-19.9839478 c-0.6469116-7.0100708-1.5119019-12.2789917-2.7249146-16.5800171c-0.7390137-2.625-1.5880127-4.8210449-2.5970459-6.7129517 c-1.1729736-2.1959839-2.5679932-3.9620361-4.1519775-5.2510376c-3.3100586-2.6900024-6.3709717-2.8199463-8.3649902-2.4430542 c-4.7059937,0.8920288-8.1820068,5.2450562-10.6850586,8.9420776c-1.9749146,2.9249268-3.8850098,6.3449707-5.7299805,9.6489868 c-1.93396,3.4589844-3.9299316,7.0369873-5.8839722,9.8060303c-1.80896,2.5620117-3.3850098,4.1679077-4.6969604,4.7810059 c-0.7030029,0.3289185-1.3900146,0.5059814-2.7670898-0.6160889c-1.1660156-0.9489746-2.2169189-2.6529541-3.1270142-5.0679932 c-1.5839233-4.1899414-2.7119751-10.5310059-3.447937-19.3869629c-0.4790039-5.6810303-0.7680664-11.9300537-1.0490723-17.9729614 c-0.3099365-6.7130737-0.6309204-13.6530151-1.2149658-19.9801025 c-0.6519775-7.0169067-1.5200195-12.2839355-2.7279663-16.5819702c-0.7439575-2.6329346-1.5930176-4.8270264-2.5969849-6.7059937 c-1.1679688-2.1969604-2.5679932-3.9659424-4.1530151-5.2529907c-1.6129761-1.3140259-3.4150391-1.9579468-5.2839966-1.9169312 c-2.8399658,0.0828857-5.4749756,1.7369995-8.0579834,5.0618896c-2.8900146,3.7380371-5.8829956,9.7240601-9.7030029,19.4130859 c-1.7380371,4.4130249-3.4959717,9.2039185-5.197998,13.8400269C654.0003662,411.875,651.0963745,419.7869873,648.2833862,426 c-2.3220215,5.124939-4.3920288,8.65802-6.1500854,10.5c-0.7559814,0.7919312-1.2869263,1.0689087-1.3769531,1.1149902 c0-0.0009766-0.098938-0.0340576-0.2890015-0.1900024c-0.2849731-0.2299805-0.7299805-0.7369995-1.256958-1.8519897 c-0.6950073-1.4650269-1.6749878-4.375-2.401001-9.9220581c-0.8930664-6.8569946-1.2479858-16.3710327-1.1140747-29.9419556 C635.7593384,389.2119751,635.9193115,382.4279175,636.0783691,375.6399536" fill="#FFE700"/></g></g><g><path d="M713.0324097,306.5269775l-12.9981079-7.5040283l5.8520508-36.8900146l12.8639526,7.4280396 L713.0324097,306.5269775 M698.9193115,298.3789673l-31.1779175-18.0009766l5.8519287-36.8890381l31.1779785,18.0010376 L698.9193115,298.3789673 M563.2613525,289.2199707l-2.447937-1.4129639L564.609314,263.875l2.4490356,1.4129639 L563.2613525,289.2199707 M559.6983643,287.1629639l-31.1779785-18l3.7959595-23.9329834l31.1790161,18.0009766 L559.6983643,287.1629639 M666.6273804,279.7349854l-31.1780396-18l5.8519897-36.8890381l31.1780396,18L666.6273804,279.7349854 M527.4053955,268.5189209l-31.1769714-18l3.7959595-23.9319458l31.1770325,18L527.4053955,268.5189209 M718.9494019,268.289917 l-12.8619995-7.4259644l3.171936-19.9949951l4.8120117,2.7780151c4.848999,2.7999878,7.4709473,8.2979736,6.5940552,13.8289795 L718.9494019,268.289917 M567.2593384,264.0189209l-2.447998-1.4139404l5.8510742-36.8889771l7.7329712,4.4649658 c-0.3990479-0.0950317-0.802063-0.1400146-1.2009888-0.1400146c-2.4910889,0-4.8260498,1.7730103-5.257019,4.4860229 l-2.0509644,12.9329834L567.2593384,264.0189209 M563.6963501,261.9619751l-31.1790161-18.0010376l5.8519897-36.8889771 l31.1790771,18L563.6963501,261.9619751 M634.3343506,261.0909424l-31.1790161-18.0009766l5.8519897-36.8890381 l31.1790161,18.0010376L634.3343506,261.0909424 M704.9723511,260.2199707l-31.1780396-18l3.1720581-19.9949951l31.1780396,18 L704.9723511,260.2199707 M495.1134338,249.875l-29.5760498-17.0760498 c-0.5779419-0.3329468-1.1009521-0.7349854-1.5609741-1.1900024l3.7550049-23.6669922l31.1779175,18.0010376L495.1134338,249.875 M531.4033813,243.3169556l-31.1770325-18l5.8510742-36.8889771l31.1769104,18L531.4033813,243.3169556 M602.0413818,242.4459839 l-31.177063-18l5.8510742-36.8889771l31.1779785,18L602.0413818,242.4459839 M672.6803589,241.5759277l-31.177063-18 l3.1710815-19.9949951l31.1779785,18L672.6803589,241.5759277 M462.9584045,230.3619385 c-1.0230713-1.5609741-1.4660034-3.4790039-1.1599731-5.4029541l2.9060059-18.7640381l1.9119873,1.1040039L462.9584045,230.3619385 M499.1113586,224.6729736l-31.1790161-18.0009766l5.8519897-36.8890381l31.1780396,18.0009766L499.1113586,224.6729736 M569.7493286,223.8029785l-31.1779785-18.0009766l5.8520508-36.8890381l31.1779175,18.0009766L569.7493286,223.8029785 M640.3883667,222.9320068l-31.1799927-18.0010376l3.171936-19.9949951l31.1790771,18.0009766L640.3883667,222.9320068 M466.8183899,206.0289917l-1.9170532-1.1060181l5.7260742-36.9620361l2.0419922,1.1790161L466.8183899,206.0289917 M537.4563599,205.157959l-31.1770325-18l5.8520203-36.8889771l31.177063,18L537.4563599,205.157959 M608.0942993,204.2879639 l-31.1779175-18.0009766l3.171936-19.9949951l31.1780396,18.0009766L608.0942993,204.2879639 M505.1643372,186.5149536 l-31.178894-18.0009766l5.8519287-36.8900146L511.0163269,149.625L505.1643372,186.5149536 M575.8023071,185.6439209 l-31.1779785-18.0009155l3.1720581-19.9950562l31.1779785,18.0009766L575.8023071,185.6439209 M472.8714294,167.8699951 l-2.0469971-1.1810303l5.7260132-36.9620361l2.171936,1.2540283L472.8714294,167.8699951 M543.5093384,167l-31.1769409-18 l3.171936-19.9949951l31.177063,18L543.5093384,167 M511.2174377,148.355957l-31.1790161-18.0009766l2.9589844-18.6560059 c0.3179932-0.059021,0.6420288-0.0900269,0.9689331-0.0900269c0.8900757,0,1.7990112,0.2260132,2.6490479,0.71698 l27.7740173,16.0350342L511.2174377,148.355957 M478.9243469,129.7109375l-2.1749878-1.2549438l1.9610596-12.3610229 c0.2949219-1.8590088,1.4839478-3.2769775,3.0059204-3.9849854L478.9243469,129.7109375" fill="#DCDCDC"/></g><g><path d="M700.0343018,299.0229492l-1.1149902-0.6439819l5.8519897-36.8889771l1.1150513,0.6429443 L700.0343018,299.0229492 M706.0874023,260.8639526l-1.1150513-0.6439819l3.1720581-19.9949951l1.1149292,0.6439819 L706.0874023,260.8639526" fill="#CFCFCF"/></g><g><path d="M667.741394,280.3779907l-1.1140137-0.6430054l5.8519897-36.8890381l1.1139526,0.6430054 L667.741394,280.3779907 M673.7943115,242.2199707l-1.1139526-0.644043l3.1719971-19.9949951l1.1140137,0.644043 L673.7943115,242.2199707" fill="#CFCFCF"/></g><g><path d="M635.4493408,261.7349854l-1.1149902-0.644043l5.8519897-36.8889771l1.1149902,0.6439819 L635.4493408,261.7349854 M641.5032959,223.5759277l-1.1149292-0.6439209l3.1710205-19.9950562l1.1149902,0.6439819 L641.5032959,223.5759277" fill="#CFCFCF"/></g><g><path d="M603.1553345,243.0899658l-1.1139526-0.6439819l5.8519897-36.8889771l1.1139526,0.6439209 L603.1553345,243.0899658 M609.208374,204.9309692l-1.1140747-0.6430054l3.1720581-19.9949951l1.1139526,0.6430054 L609.208374,204.9309692" fill="#CFCFCF"/></g><g><path d="M560.8134155,287.8070068l-1.1150513-0.644043l3.7969971-23.9320068l1.1139526,0.644043 L560.8134155,287.8070068 M564.8113403,262.6049805l-1.1149902-0.6430054l5.8520508-36.8900146l1.1140137,0.644043 L564.8113403,262.6049805 M570.8643188,224.4459839l-1.1149902-0.6430054l5.8519897-36.8890381l1.1140747,0.6430664 L570.8643188,224.4459839 M576.9163818,186.2869873l-1.1140747-0.6430664l3.1720581-19.9949951l1.1139526,0.6430664 L576.9163818,186.2869873" fill="#CFCFCF"/></g><g><path d="M528.5203857,269.1629639l-1.1149902-0.644043l3.7960205-23.9319458l1.1149292,0.6430054 L528.5203857,269.1629639 M532.517334,243.9609375l-1.1139526-0.6439819l5.8509521-36.8889771l1.1149902,0.6439819 L532.517334,243.9609375 M538.5713501,205.802002l-1.1149902-0.644043l5.8520508-36.8889771l1.1149902,0.6439819 L538.5713501,205.802002 M544.6243286,167.6430054L543.5093384,167l3.1720581-19.9949951l1.1149902,0.6429443 L544.6243286,167.6430054" fill="#CFCFCF"/></g><g><path d="M496.2284241,250.5189209L495.1134338,249.875l3.7958984-23.9320068l1.1150513,0.6439819 L496.2284241,250.5189209 M500.2263489,225.3169556l-1.1149902-0.6439819l5.8510132-36.8890381l1.1150513,0.644043 L500.2263489,225.3169556 M506.2793274,187.157959l-1.1149902-0.6430054L511.0163269,149.625l1.1150208,0.6439819 L506.2793274,187.157959 M512.3323975,149l-1.1149597-0.644043l3.1719666-19.9949951l1.1149292,0.644043L512.3323975,149" fill="#CFCFCF"/></g><g><path d="M463.9764099,231.6089478c-0.3839722-0.3809814-0.7249756-0.7989502-1.0180054-1.2470093 l3.65802-23.0629883l1.1149902,0.6430054L463.9764099,231.6089478 M467.9323425,206.6719971l-1.1139526-0.6430054 l5.8510132-36.8890381l1.1149292,0.6430054L467.9323425,206.6719971 M473.9854431,168.5139771l-1.1140137-0.6439819 l5.8509521-36.8890381l1.1149902,0.6430054L473.9854431,168.5139771 M480.0384216,130.3549805l-1.1140747-0.644043 l2.7919922-17.6009521c0.4071045-0.1900024,0.8380127-0.3280029,1.2810669-0.4110107L480.0384216,130.3549805" fill="#CFCFCF"/></g><g><path d="M718.7503052 269.5609741L705.8863525 262.1329346 704.7713013 261.4899902 673.5933228 243.4889526 672.4793701 242.8459473 641.3013306 224.8459473 640.1863403 224.2019653 609.0073242 206.2009277 607.8933716 205.5570068 576.7153931 187.5570068 575.6013184 186.9139404 544.4234009 168.9129639 543.3084106 168.2689819 512.1313477 150.2689819 511.0163269 149.625 479.8373718 131.6239624 478.7223816 130.980957 476.5504456 129.7269287 476.6583557 129.0289307 476.7493591 128.4559937 478.9243469 129.7109375 480.0384216 130.3549805 511.2174377 148.355957 512.3323975 149 543.5093384 167 544.6243286 167.6430054 575.8023071 185.6439209 576.9163818 186.2869873 608.0942993 204.2879639 609.208374 204.9309692 640.3883667 222.9320068 641.5032959 223.5759277 672.6803589 241.5759277 673.7943115 242.2199707 704.9723511 260.2199707 706.0874023 260.8639526 718.9494019 268.289917 718.8583374 268.8619385 718.7503052 269.5609741" fill="#CFCFCF"/></g><g><path d="M712.8723755,307.5619507L579.8433228,230.756958 c-0.4689331-0.2699585-0.9559326-0.4599609-1.447937-0.5759888l-7.7329712-4.4649658l-1.1140137-0.644043l-31.1790771-18 l-1.1149902-0.6439819l-31.1769104-18l-1.1150513-0.644043l-31.1780396-18.0009766l-1.1149292-0.6430054l-2.0419922-1.1790161 l0.1970215-1.2719727l2.0469971,1.1810303l1.1140137,0.6439819l31.178894,18.0009766l1.1149902,0.6430054l31.1770325,18 l1.1149902,0.644043l31.1779785,18.0009766l1.1149902,0.6430054l31.177063,18l1.1139526,0.6439819l31.1790161,18.0009766 l1.1149902,0.644043l31.1780396,18l1.1140137,0.6430054l31.1779175,18.0009766l1.1149902,0.6439819l12.9981079,7.5040283 L712.8723755,307.5619507" fill="#CFCFCF"/></g><g><path d="M567.0583496 265.2879639L564.609314 263.875 563.4953613 263.230957 532.3163452 245.2299805 531.201416 244.5869751 500.0243835 226.5869751 498.9093323 225.9429932 467.7314148 207.9419556 466.6164246 207.2989502 464.7044373 206.1949463 464.9013367 204.9229736 466.8183899 206.0289917 467.9323425 206.6719971 499.1113586 224.6729736 500.2263489 225.3169556 531.4033813 243.3169556 532.517334 243.9609375 563.6963501 261.9619751 564.8113403 262.6049805 567.2593384 264.0189209 567.0583496 265.2879639" fill="#CFCFCF"/></g><g><path d="M697.3353882,365.4559326c-1.2830811,0-2.5950928-0.3259277-3.8210449-1.0339966l-57.5579834-33.230957 c-0.2739868-3.8900146-0.6559448-7.2390137-1.1499634-10.1110229c-0.5510864-3.2089844-1.2460327-5.8400269-2.1210327-8.0460205 c-1.05896-2.6719971-2.43396-4.7059326-4.0789795-6.0429688c-1.5720215-1.2789917-3.3140259-1.9209595-5.2119751-1.9209595 c-0.0300903,0-0.0610962,0-0.0921021,0c-2.8369751,0.098938-5.4649658,1.7559204-8.0319214,5.0669556 c-1.3300171,1.7150269-2.6820679,3.9100342-4.1279907,6.7270508l-47.8810425-27.644043l3.7969971-23.9320068l0.2009888-1.269043 l2.6270752-16.55896l139.7979736,80.7129517l-4.7650757,30.8099976 C704.2983398,362.8969116,700.9293213,365.4559326,697.3353882,365.4559326 M627.7874146,326.473938l-9.7990723-5.6569824 c1.5789795-3.0839844,3.0189819-5.3139648,4.2970581-6.651001c0.9099731-0.9520264,1.4049683-1.0939941,1.3859253-1.1119995 c0.0209961,0.0079956,0.1150513,0.0490112,0.2789917,0.1830444c0.2839966,0.2319336,0.736084,0.7439575,1.2650757,1.8560181 c0.6959229,1.4729614,1.6759033,4.3869629,2.3939209,9.9129028 C627.6713867,325.4819336,627.7304077,325.9719849,627.7874146,326.473938" fill="#B0CEDC"/></g><g><path d="M709.6843872,328.1729126l-139.7979736-80.7129517l2.0509644-12.9329834 c0.4309692-2.7130127,2.7659302-4.4860229,5.257019-4.4860229c0.3989258,0,0.8019409,0.0449829,1.2009888,0.1400146 c0.4920044,0.1160278,0.9790039,0.3060303,1.447937,0.5759888l133.0290527,76.8049927L709.6843872,328.1729126" fill="#5D75DC"/></g><g><path d="M635.9563599,331.190979l-8.1689453-4.717041 c-0.0570068-0.5019531-0.1160278-0.9920044-0.1781006-1.4680176c-0.7180176-5.5259399-1.697998-8.4399414-2.3939209-9.9129028 c-0.5289917-1.1120605-0.9810791-1.6240845-1.2650757-1.8560181c-0.1639404-0.1340332-0.2579956-0.1750488-0.2789917-0.1830444 c0.019043,0.0180054-0.4759521,0.1599731-1.3859253,1.1119995c-1.2780762,1.3370361-2.7180786,3.5670166-4.2970581,6.651001 l-6.8459473-3.9529419c1.4459229-2.8170166,2.7979736-5.0120239,4.1279907-6.7270508 c2.5669556-3.3110352,5.1949463-4.9680176,8.0319214-5.0669556c0.0310059,0,0.0620117,0,0.0921021,0 c1.8979492,0,3.6399536,0.6419678,5.2119751,1.9209595c1.6450195,1.3370361,3.0200195,3.3709717,4.0789795,6.0429688 c0.875,2.2059937,1.5699463,4.8370361,2.1210327,8.0460205C635.300415,323.9519653,635.682373,327.3009644,635.9563599,331.190979" fill="#DCCA1D"/></g><g><path d="M686.3084106,350.0100098c4.6569214,2.6879883,10.5629883-0.1280518,11.4049683-5.4390259 l13.9390259-90.1210327L469.4524231,114.6159668l-14.8599854,95.9299927 c-0.4970703,3.1360474,0.9889526,6.2529907,3.7389526,7.8410034L686.3084106,350.0100098L686.3084106,350.0100098z" fill="#FFF"/></g><g><path d="M706.8653564,229.2349854L479.4093323,97.9129639 c-3.2279053-1.8640137-7.3209839,0.0880127-7.9049072,3.769043l-2.052002,12.93396l242.1999817,139.8339844l1.8070068-11.3869629 C714.3363647,237.532959,711.7144165,232.0339355,706.8653564,229.2349854L706.8653564,229.2349854z" fill="#5576FF"/></g><g><path d="M699.194397,239.6739502c1.8369141-0.8609619,2.4489746-3.4279785,1.367981-5.7319946 s-3.4460449-3.473999-5.2820435-2.6119995c-1.8369751,0.8619995-2.4499512,3.4279785-1.3690186,5.7319946 C694.9923096,239.3659668,697.3573608,240.5359497,699.194397,239.6739502L699.194397,239.6739502z" fill="#FFF"/></g><g><path d="M684.9313354,231.3419189c1.8370361-0.8619385,2.4500732-3.4279175,1.3690796-5.7319336 c-1.0810547-2.3040161-3.446106-3.473999-5.28302-2.6119995c-1.8370361,0.8619995-2.4490967,3.427002-1.368042,5.7319946 C680.7293701,231.0339966,683.0953979,232.2030029,684.9313354,231.3419189L684.9313354,231.3419189z" fill="#FFF"/></g><g><path d="M670.1173706,222.9349976c1.8359985-0.8619995,2.447937-3.4280396,1.368042-5.7330322 c-1.0810547-2.3030396-3.4460449-3.4729614-5.28302-2.6119995c-1.8370972,0.8619995-2.4490356,3.4280396-1.3670654,5.7319946 C665.9154053,222.6269531,668.2803345,223.7959595,670.1173706,222.9349976L670.1173706,222.9349976z" fill="#FFF"/></g><g><path d="M804.2514038,374.8659668c1.8359375-0.8610229,2.4489746-3.4279785,1.367981-5.7319946 s-3.4459839-3.4740601-5.2820435-2.6119995c-1.8369751,0.8610229-2.4499512,3.4280396-1.368042,5.7319946 C800.0493774,374.5579834,802.4143677,375.7279663,804.2514038,374.8659668L804.2514038,374.8659668z" fill="#FFF"/></g><g><path d="M789.9883423,366.5339966c1.8370361-0.8619995,2.4490356-3.4279785,1.368042-5.7330933 c-1.0800171-2.3029785-3.4450684-3.4729614-5.2819824-2.6109009c-1.8370361,0.8609619-2.4490967,3.4269409-1.368042,5.7319946 C785.7874146,366.2260132,788.1513062,367.3950195,789.9883423,366.5339966L789.9883423,366.5339966z" fill="#FFF"/></g><g><path d="M775.1734009,358.1259155c1.8369141-0.8609619,2.4500122-3.4279175,1.3689575-5.7319946 c-1.0809937-2.3040161-3.4460449-3.4729614-5.28302-2.6119385c-1.8359375,0.8619995-2.4499512,3.4279785-1.3689575,5.7319336 C770.9713745,357.8179932,773.3373413,358.9879761,775.1734009,358.1259155L775.1734009,358.1259155z" fill="#FFF"/></g><g><path d="M331.7593994 441.7349243L282.5914001 470.1219482 331.7253723 498.6749573 380.8934021 470.2889404 331.7593994 441.7349243z" fill="#FFE700"/></g><g><path d="M380.8934021 470.2889404L331.7253723 498.6749573 331.7723999 547.5499878 380.9394226 519.1639404 380.8934021 470.2889404z" fill="#F3F3F3"/></g><g><path d="M340.063385,505.2039185c1.1700134-0.6759033,2.1159973-2.3149719,2.1130066-3.6589355 c-0.0039978-1.3440247-0.9559631-1.8840332-2.1260071-1.2080078c-1.17099,0.6739807-2.1149597,2.3089905-2.1109924,3.6539612 C337.9433899,505.3359985,338.8934021,505.8800049,340.063385,505.2039185L340.063385,505.2039185z" fill="#0C5E96"/></g><g><path d="M354.9654236,496.5999756c1.1699524-0.6760254,2.1159973-2.3139648,2.1119385-3.6589966 c-0.0029907-1.3440552-0.9559326-1.8839722-2.125946-1.2080688c-1.1700439,0.6760864-2.1159973,2.3120728-2.1119995,3.6560669 C352.8424072,496.7329712,353.7953796,497.2759399,354.9654236,496.5999756L354.9654236,496.5999756z" fill="#0C5E96"/></g><g><path d="M369.8664246,487.9970093c1.1699829-0.6760864,2.1140137-2.3129883,2.1099243-3.65802 c-0.0039062-1.3439941-0.9529419-1.8850098-2.1240234-1.2090454c-1.1699219,0.6750488-2.1159058,2.3110352-2.1119385,3.6549683 C367.7443542,488.1300049,368.6963806,488.6719971,369.8664246,487.9970093L369.8664246,487.9970093z" fill="#0C5E96"/></g><g><path d="M282.5914001 470.1219482L331.7593994 498.6749573 331.7593994 441.7349243 282.5914001 470.1219482z" fill="#F4F4F4"/></g><g><path d="M340.063385,520.5460205c1.1700134-0.6760864,2.1159973-2.3150635,2.1130066-3.6600342 c-0.0039978-1.3439941-0.9559631-1.8840332-2.1270142-1.2089844c-1.1699829,0.6759033-2.1139526,2.3099976-2.1099854,3.6549072 C337.9433899,520.6759644,338.8934021,521.2199707,340.063385,520.5460205L340.063385,520.5460205z" fill="#0C5E96"/></g><g><path d="M354.9654236,511.9419861c1.1699524-0.6759949,2.1159973-2.3139954,2.1119385-3.6590271 c-0.0039673-1.3450012-0.9559326-1.8849487-2.125946-1.2090149c-1.1700439,0.6759949-2.1159973,2.3110657-2.1119995,3.6560364 C352.8424072,512.0749512,353.7953796,512.617981,354.9654236,511.9419861L354.9654236,511.9419861z" fill="#0C5E96"/></g><g><path d="M369.8664246,503.3389587c1.1699829-0.6759949,2.1140137-2.3139954,2.1099243-3.65802 c-0.0039062-1.3439636-0.9529419-1.8859558-2.1240234-1.2109985c-1.1699219,0.6760559-2.1159058,2.3120422-2.1119385,3.657074 C367.7443542,503.4709473,368.6963806,504.0129395,369.8664246,503.3389587L369.8664246,503.3389587z" fill="#0C5E96"/></g><g><path d="M340.063385,536.3769531c1.1700134-0.6750488,2.1159973-2.3149414,2.1130066-3.6589355 c-0.0039978-1.3439941-0.9559631-1.8840332-2.1270142-1.2090454c-1.1699829,0.6759644-2.1139526,2.3099976-2.1099854,3.6549683 C337.9433899,536.5079956,338.8934021,537.052002,340.063385,536.3769531L340.063385,536.3769531z" fill="#0C5E96"/></g><g><path d="M354.9654236,527.7729492c1.1699524-0.6749268,2.1159973-2.3139648,2.1119385-3.657959 c-0.0039673-1.3449707-0.9559326-1.8850708-2.125946-1.2089844c-1.1700439,0.6759033-2.1159973,2.3109741-2.1119995,3.6560059 C352.8424072,527.9060059,353.7953796,528.4489746,354.9654236,527.7729492L354.9654236,527.7729492z" fill="#0C5E96"/></g><g><path d="M369.8664246,519.1710205c1.1699829-0.6760254,2.1140137-2.3140869,2.1099243-3.6590576 c-0.0039062-1.3439941-0.9529419-1.8849487-2.1240234-1.2099609c-1.1699219,0.6759644-2.1159058,2.3120117-2.1119385,3.6569824 C367.7443542,519.302002,368.6963806,519.8449707,369.8664246,519.1710205L369.8664246,519.1710205z" fill="#0C5E96"/></g><g><path d="M331.7253723 498.6749573L282.5914001 470.1219482 282.6373901 518.9969482 331.7713928 547.5499878 331.7253723 498.6749573z" fill="#FFE700"/></g><g><path d="M207.1323853,547.1099854c0.2870178-0.6740723,7.3000183-16.4810791,21.7019958-14.4970093 c5.7720032,0.7940063,13.0700073,3.9269409,15.0549927,14.3359375c0.2580566,1.3450317,1.4330139,2.2780151,2.7530212,2.2780151 c0.1719971,0,0.3500061-0.0159912,0.5290222-0.0499878c1.5189819-0.2900391,2.5179749-1.756958,2.2279663-3.2799683 c-2.0039978-10.5159912-9.2219849-17.3839722-19.7990112-18.8410645 c-15.0339966-2.0749512-24.6319885,10.7800293-27.6299744,17.861084c-0.6029968,1.4229736,0.0599976,3.0670166,1.4839783,3.6719971 C204.8883972,549.2030029,206.5263977,548.5319824,207.1323853,547.1099854L207.1323853,547.1099854z" fill="#0C5E96"/></g><g><path d="M247.5813904,549.2789917c1.6919861-0.4020386,2.617981,0.0380249,3.1660156,0.407959 c2.1799927,1.4790649,3.1599731,5.3919678,3.3509827,6.7699585c0.2059937,1.5310059,1.6059875,2.6010742,3.1529846,2.4071045 c1.53302-0.2059937,2.6119995-1.6160889,2.4070129-3.1520996c-0.1019897-0.7589722-1.1260071-7.5029907-5.7430115-10.6529541 c-2.1939697-1.4919434-4.8469849-1.9230347-7.6699829-1.2230225c-3.5079956,0.8590698-5.1620178,2.967041-5.9320068,4.5860596 c-2.4419861,5.1289062,0.6790161,12.0189819,1.0400085,12.7889404c0.4799805,1.0120239,1.4880066,1.6040039,2.539032,1.6040039 c0.4009705,0,0.8109741-0.085022,1.1969604-0.2679443c1.3989868-0.6630249,2-2.335083,1.3370056-3.736084 c-0.7890015-1.6639404-2.0809937-5.8069458-1.0490112-7.9819336 C245.6094055,550.3389893,246.0943909,549.6459351,247.5813904,549.2789917L247.5813904,549.2789917z" fill="#0C5E96"/></g><g><path d="M202.0574036,546.1569824c-0.0770264-1.3739624,0.9779968-2.5580444,2.3530273-2.6370239 l0.1469421-0.0030518c0.6110535,0,1.197052,0.2221069,1.6570129,0.6329956 c0.4990234,0.4431152,0.7950134,1.0551147,0.8330078,1.7200928c0.0740051,1.374939-0.9810181,2.5569458-2.3529968,2.6359863 C203.2703857,548.5909424,202.1373901,547.5289307,202.0574036,546.1569824L202.0574036,546.1569824z M205.0124207,554.1040039 c4.4599609-0.2550049,7.8839722-4.0910034,7.631958-8.5499878v-0.0020142 c-0.2550049-4.4630127-4.0390015-7.9630127-8.552002-7.6300049c-4.4639893,0.2550049-7.8869934,4.0919189-7.6319885,8.5529785 c0.2460022,4.3080444,3.8250427,7.6429443,8.0870056,7.6429443 C204.7004089,554.1179199,204.8564148,554.1149292,205.0124207,554.1040039L205.0124207,554.1040039z" fill="#CEC7C6"/></g><g><path d="M193.1714172 580.3919678L169.990387 593.1409912 190.5583801 605.0159912 213.7394104 592.2669067 193.1714172 580.3919678z" fill="#FFE700"/></g><g><path d="M197.0393982 621.8299561L195.8493958 623.007019 219.030426 610.2579346 220.2193909 609.0819092 220.9664001 607.3610229 221.2213745 605.2139893 220.9664001 602.7869873 220.2193909 600.2449951 219.0293884 597.7609863 217.4794006 595.5059204 215.6763916 593.631958 213.7394104 592.2669067 190.5583801 605.0159912 192.4954224 606.3809204 194.3003845 608.2550049 195.8493958 610.5100098 197.0393982 612.9940186 197.7864075 615.5359497 198.0413818 617.9630127 197.7864075 620.1099854 197.0393982 621.8299561z" fill="#FFE700"/></g><g><path d="M169.990387 593.1409912L193.1714172 580.3919678 191.234375 579.6299438 189.4294128 579.5209961 187.8804016 580.0739746 164.7003784 592.822998 166.2504272 592.2689819 168.0544128 592.3779297 169.990387 593.1409912z" fill="#FFE700"/></g><g><path d="M165.6723938,598.6710205l0.4250183-0.9320068l0.6659851-0.6300049l0.8619995-0.2839966 l0.9979858,0.0789795l1.0670166,0.4379883l1.0630188,0.7680054l0.9859619,1.0440063l0.8430176,1.249939l0.6409912,1.3699951 l0.3980103,1.3970947l0.125,1.3289185l-0.1549988,1.1699829l-0.4260254,0.9310913l-0.6659546,0.6300049l-0.8619995,0.2839966 l-0.9980469-0.0790405l-1.0659485-0.4390259l-1.0630493-0.7670288l-0.986969-1.0439453l-0.8429871-1.250061l-0.6410217-1.3699951 l-0.3980103-1.3959961l-0.125-1.3299561L165.6723938,598.6710205L165.6723938,598.6710205z M186.5354004,611.7739258 l0.3739929-0.8599854l0.5939941-0.5879517l0.7749939-0.2769775l0.9020386,0.053894l0.9679565,0.3820801l0.9680176,0.6820068 l0.9019775,0.9369507l0.776001,1.1279907l0.5930481,1.2410889l0.375,1.2719727l0.1269531,1.2130127l-0.1269531,1.0739746 l-0.375,0.8599243l-0.5930481,0.5880737l-0.776001,0.276001l-0.9019775-0.0529785l-0.9680176-0.3820801l-0.9679565-0.6829224 l-0.9020386-0.9360352l-0.7749939-1.1279907l-0.5939941-1.2409668l-0.3739929-1.2720947l-0.1279907-1.2129517 L186.5354004,611.7739258L186.5354004,611.7739258z M164.7003784,605.3189087l1.5500488,2.2561035l1.8039856,1.8739624 l1.9359741,1.3640137l20.5679932,11.8759155l1.9370422,0.7630005l1.8049622,0.1080322l1.5490112-0.5529175l1.1900024-1.177063 l0.7470093-1.7199707l0.2549744-2.1469727l-0.2549744-2.427063l-0.7470093-2.5419312l-1.1900024-2.4840088l-1.5490112-2.2550049 l-1.8049622-1.8740845l-1.9370422-1.3649292l-20.5679932-11.875l-1.9359741-0.7630615l-1.8039856-0.1089478l-1.5500488,0.5540161 l-1.1889954,1.1769409l-0.7479553,1.7200317l-0.2540283,2.1469727l0.2540283,2.4280396l0.7479553,2.5409546 L164.7003784,605.3189087L164.7003784,605.3189087z" fill="#0C5E96"/></g><g><path d="M187.5033875 616.5739746L188.2783813 617.7019653 189.1804199 618.6380005 190.1483765 619.3209229 191.116394 619.7030029 192.0183716 619.7559814 192.7943726 619.4799805 193.3874207 618.8919067 193.7624207 618.0319824 193.8893738 616.9580078 193.7624207 615.7449951 193.3874207 614.4730225 192.7943726 613.2319336 192.0183716 612.1039429 191.116394 611.1669922 190.1483765 610.4849854 189.1804199 610.1029053 188.2783813 610.0490112 187.5033875 610.3259888 186.9093933 610.9139404 186.5354004 611.7739258 186.4074097 612.8479614 186.5354004 614.0609131 186.9093933 615.3330078 187.5033875 616.5739746z" fill="#FFE700"/></g><g><path d="M166.6804199 603.9359131L167.523407 605.1859741 168.510376 606.2299194 169.5734253 606.9969482 170.6393738 607.4359741 171.6374207 607.5150146 172.4994202 607.2310181 173.1653748 606.6010132 173.5914001 605.6699219 173.7463989 604.499939 173.6213989 603.1710205 173.2233887 601.7739258 172.5823975 600.4039307 171.7393799 599.1539917 170.753418 598.1099854 169.6903992 597.34198 168.6233826 596.9039917 167.6253967 596.8250122 166.7633972 597.1090088 166.0974121 597.7390137 165.6723938 598.6710205 165.5163879 599.8399658 165.6413879 601.1699219 166.0393982 602.565918 166.6804199 603.9359131z" fill="#FFE700"/></g><g><path d="M195.6044312 552.3879395L183.2624207 559.5129395 188.1253967 562.3200073 200.4664001 555.1950073 195.6044312 552.3879395z" fill="#FFE800"/></g><g><path d="M188.1253967 562.3200073L188.1253967 599.0259399 200.4664001 591.9009399 200.4664001 555.1950073 188.1253967 562.3200073z" fill="#FFE700"/></g><g><path d="M183.2624207 559.5129395L183.2624207 596.2189941 188.1253967 599.0259399 188.1253967 562.3200073 183.2624207 559.5129395z" fill="#FFE700"/></g><g><path d="M178.6563721,579.8379517c4.7970276,2.769043,10.7060242,2.769043,15.5030518,0l35.5649719-20.5349731 c4.4370117-2.5609741,7.1699829-7.2949829,7.1699829-12.4179688v-40.1590576c0-4.7640076-2.5419922-9.1679688-6.6690063-11.5509644 l-31.6499939-18.2730103c-7.5289917-4.3469849-16.8059998-4.3469849-24.3349609,0l-28.9990234,16.7420044 c-5.7680054,3.3300171-9.3200073,9.4849854-9.3200073,16.1449585v33.9910278 c0,7.0449829,3.7579956,13.5540161,9.8580017,17.0759888L178.6563721,579.8379517L178.6563721,579.8379517z" fill="#FFE700"/></g><g><path d="M160.7823792,558.3259888l13.9570007,8.0569458c7.2210083,4.1690674,16.1160278,4.1690674,23.3370361,0 l35.9700012-20.9389648v-37.2450256l-35.9700012,20.9389954c-7.2210083,4.1680298-16.1160278,4.1680298-23.3370361,0 l-18.8339844-10.8740234c-4.5599976-2.6329346-10.2620239,0.6580811-10.2620239,5.9240723v7.9169922 c0,5.3149414,1.4000549,10.5359497,4.0570068,15.1390381C152.3573914,551.8459473,156.1793823,555.6679077,160.7823792,558.3259888 L160.7823792,558.3259888z" fill="#FFF"/></g><g><path d="M219.4943848 524.8200073L219.4943848 528.4189453 231.0254211 521.7609863 231.0254211 518.1629639 219.4943848 524.8200073z" fill="#B2ACAB"/></g><g><path d="M215.4433899 527.1589355L194.4563904 539.2749023 194.4563904 542.8739624 215.4433899 530.757019 215.4433899 527.1589355z" fill="#B2ACAB"/></g><g><path d="M208.9373779 539.9110107L194.4563904 548.2719116 194.4563904 551.8709106 208.9373779 543.5089722 208.9373779 539.9110107z" fill="#B2ACAB"/></g><g><path d="M213.7284241 540.7439575L231.0254211 530.757019 231.0254211 527.1589355 213.7284241 537.1449585 213.7284241 540.7439575z" fill="#B2ACAB"/></g><g><path d="M205.0813904 554.7329102L231.0254211 539.7539062 231.0254211 536.1549683 205.0813904 551.1339111 205.0813904 554.7329102z" fill="#B2ACAB"/></g><g><path d="M194.4563904 560.8670044L201.6963806 556.6870117 201.6963806 553.0880127 194.4563904 557.2680054 194.4563904 560.8670044z" fill="#B2ACAB"/></g><g><path d="M151.6023865,498.6729736c1.019989,0,1.8460388-0.8240356,1.8460388-1.842041v-21.7150269 c2.3449707-0.7828979,4.0619812-2.9259033,4.0619812-5.5339966c0-3.2629395-2.6450195-5.907959-5.90802-5.907959 c-3.2609863,0-5.9070129,2.6450195-5.9070129,5.907959c0,2.6080933,1.7190247,4.7510986,4.0640259,5.5339966v21.7150269 C149.7593994,497.848938,150.5854187,498.6729736,151.6023865,498.6729736L151.6023865,498.6729736z" fill="#0C5E96"/></g><g><path d="M150.0654297,562.4179077c1.3849792-0.6838989,1.9549561-2.3629761,1.2739563-3.7509155 c-0.6829834-1.3859863-2.3529968-1.9610596-3.7550049-1.2800293c-5.2659912,2.5880127-14.2269592,10.5929565-10.4450073,22.3580322 c1.0050354,3.1209717,2.9309998,5.888916,5.7260132,8.2280273c0.526001,0.4389648,1.1640015,0.6529541,1.7969971,0.6529541 c0.803009,0,1.6000061-0.3429565,2.1549988-1.0059814c0.9909973-1.1890869,0.8349915-2.9570923-0.3529968-3.9509888 c-1.9719543-1.6460571-3.3110046-3.5440674-3.9849854-5.6390991 C139.2483826,567.9769287,149.5944214,562.6539917,150.0654297,562.4179077L150.0654297,562.4179077z" fill="#0C5E96"/></g><g><path d="M150.8813782,587.1140137c2.4450073-0.4190063,6.0160522,2.1689453,7.085022,3.1019287 c1.1549988,1.019043,2.9269714,0.9129639,3.95401-0.2490234c1.0239868-1.1609497,0.9140015-2.9329224-0.2470093-3.9598999 c-0.6209717-0.5470581-6.1950073-5.3120117-11.6960144-4.4280396c-1.7279968,0.2820435-4.1619873,1.2650146-5.9229736,4.3300171 c-1.4160156,2.4650269-1.7360229,5.0709839-0.9249878,7.5390015c1.6999512,5.1760254,7.7329712,7.9580078,8.4149475,8.2559814 c0.3670044,0.1619873,0.7470093,0.2380371,1.125,0.2380371c1.0740051,0,2.0970154-0.6210938,2.5630188-1.6700439 c0.6250305-1.4130249-0.01297-3.0670166-1.4240112-3.6970215c-1.1439819-0.5119629-4.5820007-2.5060425-5.3559875-4.8880005 c-0.1940002-0.5979614-0.3560181-1.5559692,0.4660339-2.9849854 C149.6354065,587.4509888,150.3833923,587.1959839,150.8813782,587.1140137L150.8813782,587.1140137z" fill="#0C5E96"/></g><g><path d="M150.9373779,564.0319824h-0.019989H150.9373779L150.9373779,564.0319824z M147.6193848,567.3800049 c1.7430115,0,3.3980103-0.6450195,4.6910095-1.8330078c2.8179932-2.5910034,3.0029907-6.9940186,0.4119873-9.809082 c-1.2510071-1.3669434-2.9649963-2.1629028-4.8179932-2.2419434c-1.8399963-0.0739746-3.6260071,0.5710449-4.9930115,1.8259888 c-2.8169861,2.5899658-3.0039673,6.9900513-0.4140015,9.8110352c1.2550049,1.3670044,2.9690247,2.1630249,4.8200378,2.2410278 C147.4184265,567.3779297,147.5183716,567.3800049,147.6193848,567.3800049L147.6193848,567.3800049z" fill="#0C5E96"/></g><g><path d="M703.2703857,713.0089722c5.1959839,2.9989624,9.434021,0.5809326,9.4509277-5.3880005 l0.3110962-109.7130127c0.0169678-5.9660034-4.1940308-13.2629395-9.3890381-16.2629395l-130.2390747-75.1931152 c-5.1948853-2.9989319-9.4329224-0.5799561-9.4499512,5.3860779l-0.3109741,109.7120056 c-0.0170288,5.9699707,4.1939697,13.2659302,9.3890381,16.2659302L703.2703857,713.0089722L703.2703857,713.0089722z" fill="#FFF"/></g><g><path d="M563.6433716,621.5499878l0.3109741-109.7120056 c0.0119629-4.2269592,2.1430054-6.6740112,5.2320557-6.6740112c1.2719116,0,2.7039795,0.414032,4.2178955,1.2879333 l130.2390747,75.1931152c5.1950073,3,9.4060059,10.296936,9.3890381,16.2629395l-0.3110962,109.7130127 c-0.0119019,4.2299805-2.1439209,6.6760254-5.2340088,6.6760254c-1.2699585,0-2.7029419-0.4140625-4.2169189-1.2880249 L573.0324097,637.815918C567.8373413,634.815918,563.6263428,627.5199585,563.6433716,621.5499878L563.6433716,621.5499878z M700.8684082,717.1710205c2.2210083,1.2809448,4.4469604,1.9299927,6.6188965,1.9299927 c5.8910522,0,10.019104-4.7150269,10.0380249-11.4671021l0.3110352-109.7119141 c0.0209961-7.6300049-5.1569824-16.6069946-11.789978-20.4370117l-130.2400513-75.1930542 c-2.2199707-1.282959-4.4470215-1.9319458-6.6199341-1.9319458c-5.8890381,0-10.0170288,4.7139893-10.0370483,11.4639893 l-0.3099976,109.7139893c-0.0220337,7.6309814,5.1570435,16.6079712,11.7910156,20.4380493L700.8684082,717.1710205 L700.8684082,717.1710205z" fill="#0C5E96"/></g><g><path d="M566.7943726,506.7579651c-0.1620483,0.1170044-0.3190308,0.2440491-0.4649658,0.3830261 C566.4753418,507.000946,566.6323242,506.8749695,566.7943726,506.7579651L566.7943726,506.7579651z" fill="#0071FF"/></g><g><path d="M566.3083496,507.1619568c-0.1619873,0.1569824-0.3150024,0.3270264-0.4570312,0.5120544 C565.9933472,507.4889832,566.1463623,507.3189392,566.3083496,507.1619568L566.3083496,507.1619568z" fill="#0071FF"/></g><g><path d="M703.6433716,581.6450195l-130.2390747-75.1931152 c-5.1948853-2.9989319-9.4329224-0.5799561-9.4499512,5.3860779l-0.0229492,7.9309387l149.0789795,86.0700073l0.0220337-7.9309692 C713.0493774,591.9419556,708.8383789,584.6439209,703.6433716,581.6450195L703.6433716,581.6450195z" fill="#2150E8"/></g><g><path d="M681.0374146,577.8409424c0.0039673-1.4949341-1.0471191-3.31604-2.3480225-4.0669556 c-1.2990723-0.7490845-2.3560181-0.1460571-2.361084,1.348999c-0.0039673,1.4910278,1.0480957,3.3120117,2.3460693,4.0609741 C679.9743042,579.9349976,681.0323486,579.3330078,681.0374146,577.8409424L681.0374146,577.8409424z" fill="#FFF"/></g><g><path d="M690.8474121,583.5050049c0.0039673-1.4949951-1.0470581-3.31604-2.3480225-4.0670776 c-1.3010254-0.7509155-2.3560181-0.1459351-2.3610229,1.348999c-0.0030518,1.4910278,1.0450439,3.3100586,2.3460083,4.0610962 C689.7843628,585.598938,690.8433228,584.9969482,690.8474121,583.5050049L690.8474121,583.5050049z" fill="#FFF"/></g><g><path d="M700.6553345,589.1679688c0.0040283-1.4960327-1.0479736-3.3170166-2.3459473-4.06604 c-1.3000488-0.7509766-2.3590698-0.1479492-2.3629761,1.3470459c-0.0040283,1.4909668,1.0479126,3.3120117,2.348938,4.0629883 C699.5924072,591.2609863,700.6503906,590.6589966,700.6553345,589.1679688L700.6553345,589.1679688z" fill="#FFF"/></g><g><path d="M752.6563721,426.5559692c0-6.3329468-5.1339722-11.46698-11.4679565-11.46698 c-6.3330078,0-11.467041,5.1340332-11.467041,11.46698s5.1340332,11.46698,11.467041,11.46698 C747.5223999,438.0229492,752.6563721,432.888916,752.6563721,426.5559692L752.6563721,426.5559692z" fill="#0C5E96"/></g><g><path d="M580.3114014,561.513916c0.0249634-8.8428955,6.2908936-12.414917,13.9889526-7.9709473 c7.6710205,4.4280396,13.9210205,15.2270508,13.8960571,24.0710449c-0.0241089,8.8139648-6.3161011,12.3699951-13.9870605,7.940918 C586.5123901,581.1110229,580.2873535,570.3289795,580.3114014,561.513916L580.3114014,561.513916z M613.9503784,580.9349365 c0.0350342-12.4769287-8.7719727-27.7329712-19.632019-34.0029297c-10.8580322-6.2680054-19.723999-1.217041-19.7609863,11.2609863 c-0.0349731,12.4769897,8.7739258,27.7340088,19.632019,34.0029907 C605.0493164,598.4649048,613.9143677,593.4129639,613.9503784,580.9349365L613.9503784,580.9349365z" fill="#FFE700"/></g><g><path d="M601.5073242,570.4229736c0-4.0050049-3.2479858-7.2529907-7.2540283-7.2529907 c-4.006897,0-7.2539673,3.2479858-7.2539673,7.2529907c0,4.007019,3.2470703,7.2550049,7.2539673,7.2550049 C598.2593384,577.6779785,601.5073242,574.4299927,601.5073242,570.4229736L601.5073242,570.4229736z" fill="#0C5E96"/></g><g><path d="M743.1403198 430.9099121L741.109314 426.5559692 591.8493042 496.1309814 591.8493042 573.4299927 596.6542969 573.4299927 596.6542969 499.190979 743.1403198 430.9099121z" fill="#0C5E96"/></g><g><path d="M655.9463501,601.4359741c1.9089966,1.1030273,3.4279785,0.2119751,3.4350586-1.9800415 c0.0059814-2.1699219-1.5040894-4.80896-3.4120483-5.9099731l-31.328064-18.0869751 c-1.8869629-1.0899658-3.4268799-0.2120361-3.4329224,1.9580078c-0.006958,2.1920166,1.5229492,4.8419189,3.4109497,5.9319458 L655.9463501,601.4359741L655.9463501,601.4359741z" fill="#B2ACAB"/></g><g><path d="M679.4523926,629.5969238c1.6179199,0.934082,2.9500122,0.1750488,2.9559937-1.68396l0.0029907-1.1199951 c0.0049438-1.8609619-1.3180542-4.1529541-2.9370117-5.0870361l-23.3800659-13.4990234 c-1.6188965-0.93396-2.9299316-0.1629028-2.9359131,1.6970825l-0.0020752,1.1199341 c-0.0059814,1.8590088,1.2970581,4.1400146,2.9150391,5.0740967L679.4523926,629.5969238L679.4523926,629.5969238z" fill="#B2ACAB"/></g><g><path d="M686.4013672,619.0200195c1.6399536,0.9459839,2.9509888,0.1749268,2.9559937-1.684082l0.0030518-1.1209717 c0.0059814-1.8830566-1.2970581-4.1390381-2.9360962-5.085022l-18.7539062-10.8289795 c-1.6400757-0.9459839-2.9500122-0.1990356-2.9550781,1.6849976l-0.0039673,1.1190186 c-0.0050049,1.8599854,1.2969971,4.1409912,2.9360352,5.0870361L686.4013672,619.0200195L686.4013672,619.0200195z" fill="#B2ACAB"/></g><g><path d="M644.3903198,609.3540039c1.8890381,1.0899658,3.4290771,0.2129517,3.4350586-1.9810181 c0.0059814-2.1690063-1.5230713-4.8200073-3.4119873-5.9089966l-19.8129883-11.4390259 c-1.887085-1.0899658-3.427002-0.2130127-3.434021,1.9559937c-0.0059814,2.1929932,1.5239258,4.8450317,3.4119263,5.9350586 L644.3903198,609.3540039L644.3903198,609.3540039z" fill="#B2ACAB"/></g><g><path d="M618.9303589,639.315918c1.3969727,0.8060303,2.5360107,0.1570435,2.5410156-1.4649048 c0.0029297-1.6030273-1.1270142-3.5620728-2.5240479-4.368103l-10.0910034-5.8259277 c-1.3949585-0.8059692-2.5339966-0.1569824-2.5390015,1.4459229c-0.0039673,1.6210938,1.1270142,3.5811157,2.5230103,4.387085 L618.9303589,639.315918L618.9303589,639.315918z" fill="#FFE700"/></g><g><path d="M625.5114136,632.3299561c1.3948975,0.8050537,2.5328979,0.1560669,2.5379639-1.4649658 c0.0050049-1.6040039-1.1259766-3.5629883-2.5230713-4.368042l-16.638916-9.6079712 c-1.3959961-0.8050537-2.5350342-0.1569824-2.5390625,1.4470215c-0.0040283,1.6220093,1.1260376,3.5809326,2.5220337,4.3859863 L625.5114136,632.3299561L625.5114136,632.3299561z" fill="#FFE700"/></g><g><path d="M598.5354004,632.5179443c1.9469604,1.1240234,3.5479736,0.2120361,3.5540161-2.0249634 l0.0479736-16.8830566c0.0059814-2.237915-1.5830078-4.9919434-3.5320435-6.1159668l-14.69104-8.4839478 c-1.9639282-1.132019-3.5479126-0.2120361-3.5549927,2.0269165l-0.0479126,16.882019 c-0.007019,2.2380371,1.5679321,4.9830322,3.5319824,6.1159668L598.5354004,632.5179443L598.5354004,632.5179443z" fill="#FFE700"/></g><g><path d="M677.3093872,670.7879639c1.3959961,0.8050537,2.5349121,0.1569824,2.5389404-1.4639893 c0.0040283-1.6049805-1.1269531-3.5639648-2.5219116-4.3689575l-10.0921021-5.8260498 c-1.3948975-0.8059692-2.5339355-0.157959-2.5379639,1.4460449c-0.0050049,1.6220093,1.1259766,3.5809937,2.5219727,4.3869629 L677.3093872,670.7879639L677.3093872,670.7879639z" fill="#FFE700"/></g><g><path d="M683.8883667,663.8009033c1.3959961,0.8060303,2.5350342,0.1580811,2.5389404-1.4639282 c0.0040283-1.6040039-1.1259155-3.5630493-2.5219116-4.3689575l-16.6409912-9.6069946 c-1.3950806-0.8060303-2.5339966-0.1570435-2.5380249,1.4459839c-0.0050659,1.6219482,1.1259766,3.5809937,2.5220337,4.3869629 L683.8883667,663.8009033L683.8883667,663.8009033z" fill="#FFE700"/></g><g><path d="M656.9133911,663.9899902c1.9469604,1.1240234,3.5479126,0.2119751,3.5549316-2.026001 l0.0460815-16.8820801c0.006897-2.2388916-1.5830078-4.9929199-3.5300293-6.1170044l-14.6920166-8.4819946 c-1.9640503-1.1339111-3.5479736-0.2128906-3.5549927,2.0250854l-0.0480347,16.8829956 c-0.0059204,2.2379761,1.5689697,4.9830322,3.5319824,6.1159668L656.9133911,663.9899902L656.9133911,663.9899902z" fill="#FFE700"/></g><g><path d="M522.8103638 705.5559692L498.9173889 719.3509521 512.6853638 726.8430176 536.5793457 713.0489502 522.8103638 705.5559692z" fill="#FFE700"/></g><g><path d="M505.1593933 736.1110229L506.5413513 733.2259521 508.3414001 730.6060181 510.4363708 728.4290161 512.6853638 726.8430176 498.9173889 719.3509521 496.6683655 720.9359131 494.5724182 723.112915 492.7713928 725.7329102 491.3913879 728.617981 490.5233459 731.5709229 490.2264099 734.3900146 490.5233459 736.8829956 491.3913879 738.881958 492.7713928 740.25 506.5413513 747.742981 505.1593933 746.3759766 504.2913513 744.3770142 503.9953308 741.881958 504.2913513 739.0629883 505.1593933 736.1110229z" fill="#FFE700"/></g><g><path d="M540.925354 712.0379639L542.7243042 712.6790161 528.9562988 705.1870117 527.1553955 704.5449829 525.0593872 704.6710205 522.8103638 705.5559692 536.5793457 713.0489502 538.8293457 712.1639404 540.925354 712.0379639z" fill="#FFE700"/></g><g><path d="M508.9664001,739.3059692l0.4329834-1.4760132l0.69104-1.4429932l0.8999634-1.30896l1.0480042-1.0889893 l1.125-0.7930298l1.1239624-0.4420776l1.0489502-0.0639648l0.8991089,0.3209839l0.690979,0.684021l0.434021,0.9990234 l0.1489868,1.2470093l-0.1489868,1.4099731l-0.434021,1.4770508l-0.690979,1.4420166l-0.8991089,1.3099365l-1.0489502,1.0880127 l-1.1239624,0.7929688l-1.125,0.4430542l-1.0480042,0.0619507l-0.8999634-0.3209229l-0.69104-0.6820068l-0.4329834-1 l-0.1490479-1.2480469L508.9664001,739.3059692L508.9664001,739.3059692z M532.3613892,724.7009888l0.4619141-1.6229858 l0.7450562-1.59198l0.9800415-1.4511108l1.1448975-1.2128906l1.2351074-0.8920898l1.2399902-0.5079956l1.1589355-0.0929565 l1.000061,0.3299561l0.7739258,0.7310791l0.4940796,1.0819702l0.1799316,1.3599243l-0.1439209,1.5440674l-0.4620361,1.6220093 l-0.7449951,1.5910034l-0.9790039,1.4520264l-1.1460571,1.2128906l-1.2359009,0.8911133l-1.2380371,0.5098877l-1.1599731,0.092041 l-1-0.3299561l-0.7750244-0.7320557l-0.4940186-1.0819702l-0.1789551-1.3589478L532.3613892,724.7009888L532.3613892,724.7009888z M506.5413513,747.742981l1.8000488,0.6409302l2.0949707-0.1259766l2.2489929-0.8850098l23.8939819-13.7949219l2.2490234-1.585022 l2.0969849-2.177063l1.7989502-2.6199341l1.3811035-2.8850708l0.867981-2.9519043l0.2960205-2.8190308l-0.2960205-2.4939575 l-0.867981-1.9990845l-1.3811035-1.3679199l-1.7989502-0.6410522l-2.0960083,0.1259766l-2.25,0.8850098l-23.8939819,13.7940674 l-2.2489929,1.5859985l-2.0949707,2.177002l-1.8000488,2.6199341l-1.381958,2.8850708l-0.868042,2.9519653l-0.2960205,2.8189697 l0.2960205,2.4950562l0.868042,1.9989624L506.5413513,747.742981L506.5413513,747.742981z" fill="#0C5E96"/></g><g><path d="M510.0904236 743.6450195L510.990387 743.9659424 512.0383911 743.9039917 513.1633911 743.4609375 514.2873535 742.6679688 515.3363037 741.5799561 516.2354126 740.2700195 516.9263916 738.8280029 517.3604126 737.3509521 517.5093994 735.940979 517.3604126 734.6939697 516.9263916 733.6949463 516.2354126 733.0109253 515.3363037 732.6899414 514.2873535 732.7539062 513.1633911 733.1959839 512.0383911 733.9890137 510.990387 735.0780029 510.0904236 736.3869629 509.3993835 737.8299561 508.9664001 739.3059692 508.8173523 740.7149658 508.9664001 741.9630127 509.3993835 742.9630127 510.0904236 743.6450195z" fill="#FFE700"/></g><g><path d="M533.6654053 729.4169922L534.6654053 729.7469482 535.8253784 729.6549072 537.0634155 729.1450195 538.2993164 728.2539062 539.4453735 727.0410156 540.4243774 725.5889893 541.1693726 723.9979858 541.6314087 722.3759766 541.7753296 720.8319092 541.5953979 719.4719849 541.1013184 718.3900146 540.3273926 717.6589355 539.3273315 717.3289795 538.168396 717.421936 536.9284058 717.9299316 535.6932983 718.8220215 534.5484009 720.0349121 533.5683594 721.4860229 532.8233032 723.0780029 532.3613892 724.7009888 532.2174072 726.2440186 532.3963623 727.6029663 532.8903809 728.6849365 533.6654053 729.4169922z" fill="#FFE700"/></g><g><path d="M545.2694092 716.4379883L521.3773193 730.2329102 535.1453247 737.7259521 559.0383301 723.9309692 545.2694092 716.4379883z" fill="#FFE700"/></g><g><path d="M527.6184082 746.992981L529.0003052 744.1079102 530.800354 741.4890137 532.8953247 739.3109131 535.1453247 737.7259521 521.3773193 730.2329102 519.1283569 731.8179932 517.0313721 733.9959717 515.2313843 736.6159058 513.8504028 739.5 512.9822998 742.4530029 512.6853638 745.2719727 512.9822998 747.7659912 513.8493042 749.763916 515.2313843 751.1309814 529.0003052 758.625 527.6184082 757.256958 526.7503052 755.2579956 526.4543457 752.7650146 526.7503052 749.9459229 527.6184082 746.992981z" fill="#FFE700"/></g><g><path d="M563.3843384 722.9199829L565.1833496 723.5620117 551.4153442 716.0689697 549.6153564 715.4259644 547.5183716 715.552002 545.2694092 716.4379883 559.0383301 723.9309692 561.2883301 723.0460205 563.3843384 722.9199829z" fill="#FFE700"/></g><g><path d="M531.425415,750.1879883l0.4338989-1.4760742l0.6911011-1.4429932l0.8989868-1.30896l1.0479736-1.0889893 l1.125-0.7919922l1.125-0.4439697l1.0479736-0.0629883l0.8990479,0.3209229l0.6920166,0.68396l0.4329834,1.000061 l0.1489868,1.2470093l-0.1489868,1.4089355l-0.4329834,1.4770508l-0.6920166,1.4420166l-0.8990479,1.3099365l-1.0479736,1.0880737 l-1.125,0.7930298l-1.125,0.4429932l-1.0479736,0.0629883l-0.8989868-0.3210449l-0.6911011-0.684021l-0.4338989-0.9990234 l-0.1491089-1.2479248L531.425415,750.1879883L531.425415,750.1879883z M554.8214111,735.5830078l0.4609375-1.6230469 l0.7450562-1.59198l0.9799805-1.4509888l1.1449585-1.2130127l1.2350464-0.8919678l1.2399902-0.5090942l1.1589355-0.0919189 l1.0010986,0.3309937l0.7728882,0.7310181l0.4940796,1.0819702l0.1799316,1.3590088l-0.1439209,1.5429688l-0.4610596,1.6240234 l-0.7459717,1.5900269l-0.9790039,1.4519653l-1.1460571,1.2130127l-1.2349854,0.8909912l-1.2389526,0.5100098l-1.1599731,0.0919189 l-1-0.3309326l-0.7739868-0.730957l-0.4940796-1.0820312l-0.1799316-1.3590088L554.8214111,735.5830078L554.8214111,735.5830078z M529.0003052,758.625l1.8000488,0.6419678l2.0949707-0.1259766l2.25-0.8859863l23.8930054-13.7940674l2.25-1.5859375 l2.0960083-2.177002l1.7990112-2.6199951l1.3810425-2.8850098l0.867981-2.9520264l0.296936-2.8190308l-0.296936-2.4949341 l-0.867981-1.9990845l-1.3810425-1.3659058l-1.7990112-0.6420288l-2.0960083,0.1260376l-2.25,0.8849487l-23.8930054,13.7949829 l-2.25,1.5849609l-2.0949707,2.1781006l-1.8000488,2.6188965l-1.381897,2.8850708l-0.868103,2.9529419l-0.2959595,2.8190918 l0.2959595,2.492981l0.868103,1.9989624L529.0003052,758.625L529.0003052,758.625z" fill="#0C5E96"/></g><g><path d="M532.550415 754.5279541L533.4494019 754.848999 534.4973755 754.7860107 535.6223755 754.3430176 536.7473755 753.5499878 537.7953491 752.4619141 538.694397 751.1519775 539.3864136 749.7099609 539.819397 748.2329102 539.9683838 746.8239746 539.819397 745.5769653 539.3864136 744.5769043 538.694397 743.8929443 537.7953491 743.5720215 536.7473755 743.6350098 535.6223755 744.0789795 534.4973755 744.8709717 533.4494019 745.9599609 532.550415 747.2689209 531.859314 748.7119141 531.425415 750.1879883 531.2763062 751.5969849 531.425415 752.8449097 531.859314 753.8439331 532.550415 754.5279541z" fill="#FFE700"/></g><g><path d="M556.1243896 740.2979736L557.1243896 740.6289062 558.2843628 740.5369873 559.5233154 740.0269775 560.7583008 739.1359863 561.9043579 737.9229736 562.8833618 736.4710083 563.6293335 734.8809814 564.0903931 733.256958 564.234314 731.7139893 564.0543823 730.3549805 563.5603027 729.2730103 562.7874146 728.5419922 561.7863159 728.2109985 560.6273804 728.3029175 559.3873901 728.8120117 558.1523438 729.7039795 557.0073853 730.9169922 556.0274048 732.367981 555.2823486 733.9599609 554.8214111 735.5830078 554.6763916 737.1259766 554.8563232 738.4849854 555.3504028 739.5670166 556.1243896 740.2979736z" fill="#FFE700"/></g><g><path d="M529.0303955,714.5999756c4.3999634,2.5410156,9.8209229,2.5410156,14.2219849,0l30.1610107-17.4129639 c5.5960083-3.2300415,9.0440063-9.2020264,9.0440063-15.6650391v-31.1829834 c0-6.1099854-3.2600708-11.7550659-8.5510864-14.8099976l-26.6019287-15.3590088 c-6.90802-3.9890137-15.4179688-3.9890137-22.3259888,0l-29.0350647,16.7629395 c-3.7858887,2.1860962-6.1179199,6.2250977-6.1179199,10.5969849v36.8410645c0,4.6999512,2.5079956,9.0429688,6.5779419,11.3920288 L529.0303955,714.5999756L529.0303955,714.5999756z" fill="#FFE700"/></g><g><path d="M568.2272949,689.8070068l14.2301025-8.2850342v-31.1829834L560.274353,660.875 c-3.3510132,1.5910034-5.3919678,5.0649414-5.1509399,8.7659912l0.8889771,13.6629639 C556.4053955,689.3359375,563.0043945,692.8480225,568.2272949,689.8070068L568.2272949,689.8070068z" fill="#FFF"/></g><g><path d="M582.4414062 656.815979L569.9303589 664.039917 569.9464111 669.5469971 582.4573975 662.322998 582.4414062 656.815979z" fill="#B2ACAB"/></g><g><path d="M582.4414062 666.8419189L574.9013062 671.2269897 574.9163818 676.7340088 582.4573975 672.348999 582.4414062 666.8419189z" fill="#B2ACAB"/></g><g><path d="M578.5733032,721.30896c1.5161133,0,3.0970459-0.1469727,4.7410889-0.4710083 c10.9879761-2.1559448,18.1329346-9.7770386,19.6040039-20.9109497c0.1739502-1.3129883-0.7510376-2.5209961-2.0670166-2.6950684 c-1.3230591-0.1779785-2.5209961,0.7529907-2.6950073,2.0670166 c-1.6210327,12.2659912-10.5750122,15.8060303-15.7659912,16.8240356 c-15.9000854,3.124939-24.4879761-13.8369751-24.8439941-14.5599976c-0.5910645-1.184021-2.0319824-1.6779785-3.2180176-1.0870361 c-1.1879883,0.5870361-1.6759644,2.0250244-1.092041,3.2139893C553.333374,703.881958,562.1253662,721.30896,578.5733032,721.30896 L578.5733032,721.30896z" fill="#0C5E96"/></g><g><path d="M597.6494141,682.9749756c-1.2290039-0.5-2.6270752,0.0939941-3.1240845,1.3220215 c-0.3339844,0.8220215-3.164978,8.1569824-0.3690186,13.2689209c1.236084,2.2540283,3.3880615,3.7230225,6.2220459,4.250061 c0.7030029,0.132019,1.3920288,0.1940308,2.0629883,0.1940308c2.0930176,0,4.0050049-0.6300049,5.6100464-1.8640137 c4.5499878-3.5,5.210022-10.5490723,5.2699585-11.342041c0.1020508-1.3210449-0.8869629-2.4720459-2.2069702-2.5760498 c-1.309021-0.0999756-2.4769897,0.8850098-2.5830688,2.2050781c-0.1259766,1.5699463-0.9869385,6.0499878-3.4179688,7.9100342 c-1.0359497,0.7929688-2.2939453,1.0439453-3.8580322,0.7479248c-1.8720093-0.3459473-2.5408936-1.2099609-2.8809204-1.8289795 c-1.4490356-2.6359863-0.0139771-7.6240234,0.6049805-9.1629639 C599.4723511,684.8699951,598.8793335,683.4689941,597.6494141,682.9749756L597.6494141,682.9749756z" fill="#0C5E96"/></g><g><path d="M562.1133423,702.6279297c0-3.7059326-3.0150146-6.7209473-6.7210083-6.7209473 s-6.7199707,3.0150146-6.7199707,6.7209473c0,3.7060547,3.0139771,6.7200928,6.7199707,6.7200928 S562.1133423,706.3339844,562.1133423,702.6279297L562.1133423,702.6279297z" fill="#0C5E96"/></g><g><path d="M511.8053894,638.1539917v-22.0540771c0-1.5049438-1.230957-2.7349243-2.7349854-2.7349243 s-2.7349854,1.2299805-2.7349854,2.7349243v22.0540771c0,1.5040283,1.230957,2.7339478,2.7349854,2.7339478 S511.8053894,639.65802,511.8053894,638.1539917L511.8053894,638.1539917z" fill="#0C5E96"/></g><g><path d="M516.6003418,612.5570068c0-4.1580811-3.3709717-7.5300293-7.5299377-7.5300293 c-4.1589966,0-7.5300293,3.3719482-7.5300293,7.5300293c0,4.1589966,3.3710327,7.5310059,7.5300293,7.5310059 C513.2293701,620.0880127,516.6003418,616.7160034,516.6003418,612.5570068L516.6003418,612.5570068z" fill="#0C5E96"/></g><g><path d="M102.2023926,315.0339966c-0.2089844-0.1990356-0.4309998-0.3789673-0.6610107-0.5440674 C101.7713928,314.6550293,101.9934082,314.8349609,102.2023926,315.0339966L102.2023926,315.0339966z" fill="#0071FF"/></g><g><path d="M102.8804016,315.7919312c-0.2010193-0.263916-0.4190063-0.5059814-0.6500244-0.7289429 C102.4613953,315.2859497,102.6793823,315.5280151,102.8804016,315.7919312L102.8804016,315.7919312z" fill="#0071FF"/></g><g><path d="M460.3014221 542.4259644L457.1504211 541.1849365 454.2153625 541.0079956 451.6943665 541.9089966 413.9873962 562.6469727 416.5083923 561.7479248 419.4433899 561.9229736 422.5934143 563.164917 456.0534363 582.4819336 459.2024231 584.7030029 462.1373596 587.7509155 464.6583557 591.4199219 466.5933533 595.4599609 467.8084412 599.5939941 468.2234192 603.5429688 467.8084412 607.0349731 466.5933533 609.8339844 464.6583557 611.7479248 502.3663635 591.0100098 504.3004456 589.0949707 505.5154114 586.2969971 505.9303284 582.8039551 505.5154114 578.855957 504.3004456 574.7209473 502.3663635 570.6809082 499.846405 567.0119629 496.9104309 563.9639893 493.7603455 561.7439575 460.3014221 542.4259644z" fill="#FFE700"/></g><g><path d="M413.9873962 582.9749756L416.5083923 586.6439819 419.4433899 589.6929932 422.5943909 591.9129639 456.0534363 611.230957 459.2033386 612.4710083 462.1373596 612.6480103 464.6583557 611.7479248 466.5933533 609.8339844 467.8084412 607.0349731 468.2234192 603.5429688 467.8084412 599.5939941 466.5933533 595.4599609 464.6583557 591.4199219 462.1373596 587.7509155 459.2024231 584.7030029 456.0534363 582.4819336 422.5934143 563.164917 419.4433899 561.9229736 416.5083923 561.7479248 413.9873962 562.6469727 412.0543518 564.5609131 410.8383484 567.3599854 410.4234314 570.8529663 410.8383484 574.7999268 412.0543518 578.9359741 413.9873962 582.9749756z" fill="#0C5E96"/></g><g><path d="M451.0823669 601.2839966L452.3424377 603.117981 453.8094177 604.6419067 455.3854065 605.7529907 456.9604187 606.3729248 458.4283752 606.4609375 459.6874084 606.0109863 460.6543884 605.0540161 461.2624207 603.6549683 461.4704285 601.90802 461.2624207 599.93396 460.6543884 597.8669434 459.6874084 595.8469238 458.4283752 594.0119629 456.9604187 592.487915 455.3854065 591.3789062 453.8094177 590.7579346 452.3424377 590.6699219 451.0823669 591.1199341 450.1153259 592.0769653 449.5073547 593.4760132 449.3004456 595.2219849 449.5073547 597.1959229 450.1153259 599.2629395 451.0823669 601.2839966z" fill="#FFE700"/></g><g><path d="M417.2093811 580.7260132L418.5803528 582.7579956 420.1843567 584.4569702 421.9143372 585.7059326 423.6494446 586.4189453 425.2724304 586.546936 426.6754456 586.0849609 427.7583923 585.0599365 428.4494324 583.5460205 428.7023621 581.6419678 428.4994202 579.4799805 427.8523865 577.2080078 426.8094177 574.9789429 425.438446 572.9470215 423.8333435 571.2490234 422.1044006 569.999939 420.3694153 569.2869873 418.7453918 569.1569824 417.3443909 569.6209717 416.2613831 570.6439209 415.5694275 572.1599731 415.3163757 574.0629883 415.5194397 576.223938 416.1654358 578.4969482 417.2093811 580.7260132z" fill="#FFE700"/></g><g><path d="M454.7864075,573.0050049c6.1619873,3.5570068,13.7539673,3.5570068,19.9169922,0L520.3933716,546.625 c5.7009888-3.2910767,9.2109985-9.3720703,9.2109985-15.9539795v-51.592041c0-6.1209717-3.2660522-11.7780762-8.5670166-14.8380737 l-40.6609802-23.4758911c-9.6729736-5.585083-21.5909424-5.585083-31.2639771,0l-37.2539673,21.5079956 c-7.4089966,4.2778931-11.9730225,12.1849976-11.9730225,20.7399292v43.6690674 c0,9.0499878,4.8269653,17.4119263,12.6650391,21.9369507L454.7864075,573.0050049L454.7864075,573.0050049z" fill="#FFE700"/></g><g><path d="M438.1364441,529.9370117l1.2449951-19.1320496 c0.3378906-5.1829529-2.5209961-10.0489807-7.2130737-12.276947l-31.0650024-14.7550659v43.6690674l19.927063,11.6029053 C428.3454285,543.3029175,437.5853577,538.3829956,438.1364441,529.9370117L438.1364441,529.9370117z" fill="#FFF"/></g><g><path d="M418.6394348,504.8969727c0.0029907-1.1980286-0.6340332-2.3070068-1.6720581-2.9060364 l-15.842041-9.1469421l-0.0219727,7.7119141l12.5200195,7.2290039 C415.8483582,509.0700073,418.6324158,507.4669495,418.6394348,504.8969727L418.6394348,504.8969727z" fill="#B2ACAB"/></g><g><path d="M411.6793518,514.9530029c0.0029907-1.1929932-0.6289062-2.2969971-1.6610107-2.8970947 l-8.8930054-5.1719666l-0.0219727,7.7120056l5.559021,3.2330322 C408.8843689,519.1220093,411.6723938,517.5229492,411.6793518,514.9530029L411.6793518,514.9530029z" fill="#B2ACAB"/></g><g><path d="M506.122345,475.7290039c1.9390869,0,3.512085-1.5680542,3.512085-3.5079956l4.8039246-31.7280884 c4.4629517-1.4899902,7.7329712-5.5699463,7.7329712-10.5349121c0-6.210083-5.0349731-11.2440186-11.2449036-11.2440186 c-6.210083,0-11.2450562,5.0339355-11.2450562,11.2440186c0,4.9649658,3.2709961,9.0449219,7.7350464,10.5349121 l-4.8040161,31.7280884C502.6123962,474.1609497,504.1843567,475.7290039,506.122345,475.7290039L506.122345,475.7290039z" fill="#0C5E96"/></g><g><path d="M312.4953918,310.6719971c-0.0230103,7.8569946,3.6049805,16.8309937,9.0360107,23.789978 l22.3779907,10.5769653l0.2640381-0.1040039c0.4309692-0.2099609,1.7559509-0.9580078,1.7559509-0.9580078l6.7879944-3.9439087 c3.2120361-1.8670654,5.2480469-5.7470703,5.473999-11.2090454l67.8520508,0.3580322 c3.8590088,6.8209839,9.0279541,12.9119873,14.8209839,17.1079102l2.3269653,120.3770142l47.9330444,10.8890381 l-19.9849854-132.7380371l1.3719482-0.7969971c4.5200195-2.6269531,7.322998-8.2150269,7.3449707-16.1530151 c0.0460815-15.9669189-11.1759644-35.4029541-25.0719604-43.4259644 c-6.9969482-4.039978-13.3399658-4.4159546-17.9190063-1.7550049l-10.5499878,6.1310425l0.0510254-0.0240479 c-2.8950806,1.6640625-5.0800171,4.5440063-6.2980957,8.4650269l-67.8479004,11.2319946 c-3.3619995-5.5419922-7.8580017-10.3569946-12.822998-13.2230225c-5.2580566-3.0349731-10.0230408-3.3179932-13.4640503-1.3189697 l-7.9259949,4.605957l0.0379944-0.0169678C314.6323853,300.5,312.5124207,304.6940308,312.4953918,310.6719971 L312.4953918,310.6719971z" fill="#FFE700"/></g><g><path d="M453.7323303,321.1899414c-0.9729614-4.0999756-3.1589355-7.881958-6.2178955-10.7799072 c-8.1160278-7.6890869-15.5370483-3.4850464-12.960083,7.3589478c0.9750366,4.1040039,3.1640015,7.8909912,6.2250366,10.7930298 C448.9004211,336.257019,456.3043518,332.0249634,453.7323303,321.1899414L453.7323303,321.1899414z" fill="#FFF"/></g><g><path d="M314.674408,472.5119629c0.0089722,3.4510498,2.4450073,4.8580322,5.4639893,3.1149902l8.1799927-4.7219849 l0.0270081,9.3979492c0.0090027,3.4500732,2.4449768,4.8580933,5.4639893,3.1140747 c3.019989-1.7440186,5.4570007-5.9639893,5.4480286-9.4130859l-0.0270386-9.3999023l8.1610413-4.7120972 c3.019989-1.7429199,5.4569397-5.9639282,5.447998-9.4139404c-0.0100403-3.4699707-2.4630432-4.867981-5.4840393-3.1240234 l-8.1609497,4.7120361l-0.0260315-9.3779907c-0.0100098-3.4710693-2.4630127-4.867981-5.4830017-3.1240845 c-3.019989,1.743103-5.4389954,5.9541016-5.4289856,9.4240723l0.0259705,9.3779907l-8.1789551,4.7230225 C317.0843811,464.8319702,314.6643982,469.0429077,314.674408,472.5119629L314.674408,472.5119629z" fill="#013175"/></g><g><path d="M293.2613831 408.3839722L293.313385 427.1009521 301.9203796 438.1309814 309.3813782 442.46698 315.2623901 439.072998 315.1903992 414.2449951 333.1303711 390.0159302 343.5593872 392.0249634 343.6223755 414.0549927 351.0833435 418.3909912 356.9634094 414.9959106 365.4794312 394.0800171 365.4263916 375.362915 357.9664307 371.0269165 339.9603882 362.2189331 346.6124268 307.8879395 320.9623718 298.4509277 324.2123718 364.8949585 317.1373901 368.9799805 293.2613831 408.3839722z" fill="#FFE700"/></g><g><path d="M340.3053894,321.1899414c-0.7310181-3.0799561-2.3739929-5.921936-4.67099-8.098999 c-6.0980225-5.7769775-11.6740112-2.6179199-9.7389832,5.5290527c0.7329712,3.0839844,2.3769836,5.9289551,4.6779785,8.1090088 C336.6753845,332.5109863,342.2384033,329.3309937,340.3053894,321.1899414L340.3053894,321.1899414z" fill="#FFF"/></g><g><path d="M113.1913757,450.756958l49.2010193-28.4899902l16.5890198,22.9860229l9.7809753-38.2540283 l21.1269836-12.2349854c8.6230469-4.9780273,15.6110229-17.0869751,15.5820312-26.992981l-0.5150146-111.9070435 c-0.0280151-9.901001-7.0630188-13.914978-15.68396-8.9379883l-96.7000427,55.992981 c-8.6199951,4.9770508-15.6080017,17.0870361-15.5810242,26.9880371l0.5170288,111.9069214 C97.5364075,451.7199707,104.5703735,455.7340088,113.1913757,450.756958L113.1913757,450.756958z" fill="#FFF"/></g><g><path d="M224.9563904,255.8639526c-0.0280151-9.901001-7.0630188-13.914978-15.68396-8.9379883 l-96.7000427,55.992981c-8.6199951,4.9770508-15.6080017,17.0870361-15.5810242,26.9880371l0.0520325,13.9499512 l127.9649963-73.8809814L224.9563904,255.8639526L224.9563904,255.8639526z" fill="#2150E8"/></g><g><path d="M214.2993774,252.2439575c-0.625-0.3560181-1.4360046-0.2470093-2.2449951,0.2200317 c-0.8089905,0.46698-1.6170044,1.2919922-2.2380066,2.367981l-3.190979,5.5280151l-3.2120056-1.8310547 c-0.6260071-0.355957-1.4360046-0.2479248-2.2449951,0.2200317c-0.8089905,0.4660034-1.6159973,1.2919922-2.2379761,2.367981 c-1.2090454,2.0960083-1.2030334,4.3800049,0.0149536,5.1120605l3.2450256,1.8119507l-3.223999,5.585022 c-1.2090149,2.0949707-1.20401,4.4180298,0.0139771,5.1129761c0.625,0.3560181,1.4360046,0.2479858,2.2440186-0.2189941 c0.8089905-0.4679565,1.617981-1.2919922,2.2390137-2.3689575l3.1899719-5.5280151l3.2130432,1.8309937 c0.6259766,0.3560181,1.4359741,0.2479858,2.2439575-0.2189941c0.8089905-0.467041,1.6170044-1.2919922,2.2380066-2.3690186 c1.2099915-2.0960083,1.20401-4.4190063-0.0140076-5.1130371l-3.2449951-1.848938l3.223999-5.5480347 C215.5223999,255.2229614,215.5163879,252.9389648,214.2993774,252.2439575L214.2993774,252.2439575z" fill="#FFF"/></g><g><path d="M194.5543823,329.3690186c0.5889893,0.3789673,1.3840332,0.282959,2.1810303-0.1760254 c0.7189636-0.4160156,1.4399719-1.1279907,2.0119934-2.0570679l10.3129883-16.999939 c0.6040039-0.9920044,0.9509888-2.0780029,0.947998-3.0420532c-0.0029907-0.9359741-0.355011-1.6439819-0.9620056-1.9379883 l-10.375-5.0289917c-0.5769958-0.2789917-1.3009644-0.1640015-2.0209656,0.2520142 c-0.7960205,0.4589844-1.5870361,1.2859497-2.1720276,2.3560181c-1.0909729,1.9970093-1.0139771,4.0979614,0.177002,4.6970215 l8.0379944,3.8859863l-7.9899902,13.1389771C193.5193787,326.4279785,193.4553833,328.6099854,194.5543823,329.3690186 L194.5543823,329.3690186z" fill="#FFE700"/></g><g><path d="M118.2753906,412.6829224l87.571991-50.2579346c1.631012-0.940979,2.9320068-3.2199707,2.9260254-5.0949707 c-0.0050049-1.8731079-1.3129883-2.6459961-2.9450073-1.7040405l-87.5710144,50.256958 c-1.6319885,0.9420166-2.9549561,3.2350464-2.9500122,5.1079712 C115.3123779,412.8649902,116.6443787,413.625,118.2753906,412.6829224L118.2753906,412.6829224z" fill="#FFE700"/></g><g><path d="M118.3523865,390.4179688l22.5750122-13.032959 c1.6300049-0.9420166,2.9539795-3.2340088,2.9490051-5.1080322c-0.0050049-1.8999634-1.3380127-2.6330566-2.9690247-1.69104 l-22.572998,13.03302c-1.6549683,0.9540405-2.9549866,3.2070312-2.9490051,5.1079712 C115.3893738,390.5999756,116.6993713,391.3729858,118.3523865,390.4179688L118.3523865,390.4179688z" fill="#FFE700"/></g><g><path d="M130.7624207,339.2009888c-0.5890198-0.3930664-1.3830261-0.3040771-2.1790161,0.1559448 c-0.7200012,0.4150391-1.4420166,1.1339722-2.0160217,2.0770264l-10.3349915,16.9879761 c-0.6039734,0.9920654-0.928009,2.0900269-0.9250183,3.0270386c0.0030518,0.9630127,0.3310242,1.6589355,0.9390259,1.9519653 l10.3979797,5.0430298c0.5769958,0.2650146,1.2990112,0.1439819,2.0180054-0.2709961 c0.7970276-0.4599609,1.5889893-1.2810669,2.1749878-2.3379517c1.0910339-2.0230103,1.0150146-4.125-0.1769714-4.723999 l-8.0370178-3.8860474l7.9660034-13.1260376C131.7973938,342.1419067,131.8603821,339.93396,130.7624207,339.2009888 L130.7624207,339.2009888z" fill="#FFE700"/></g><g><path d="M183.444397,353.15802l22.5979919-13.0460205c1.6300049-0.94104,2.95401-3.2340088,2.9490051-5.1070557 c-0.006012-1.9019775-1.3390198-2.6329346-2.9689636-1.6920166l-22.5960388,13.0470581 c-1.632019,0.940918-2.9550171,3.2069702-2.9500122,5.1069336 C180.4814148,353.3410034,181.813385,354.0999756,183.444397,353.15802L183.444397,353.15802z" fill="#FFE700"/></g><g><path d="M155.4403992,369.0059814l12.2800293-6.7689819c1.6299438-0.94104,2.953949-3.2330322,2.947998-5.1070557 c-0.0050354-1.9009399-1.3370361-2.6329346-2.9680481-1.6920166l-12.2789917,6.7689819 c-1.631012,0.9411011-2.95401,3.2060547-2.9490051,5.1070557 C152.4773865,369.1879883,153.8093872,369.9470215,155.4403992,369.0059814L155.4403992,369.0059814z" fill="#FFE700"/></g><g><path d="M135.5144043,353.1879272l54.0729675-30.8980103c1.631012-0.9418945,2.95401-3.2339478,2.9490356-5.1079102 c-0.006012-1.8730469-1.3380127-2.6339722-2.9690247-1.6920166l-54.071991,30.8979492 c-1.6300049,0.940979-2.9530029,3.2340698-2.947998,5.1069946 C132.5524292,353.3699341,133.8854065,354.1289673,135.5144043,353.1879272L135.5144043,353.1879272z" fill="#FFE700"/></g><g><path d="M113.977417,305.3449707l96.6990051-55.9899902 c2.0119629-1.1619873,3.9399719-1.7550049,5.6019592-1.7550049c1.0080261,0,1.9170227,0.2189941,2.6870117,0.6610107 c2.04599,1.1779785,3.1759949,3.8800049,3.1869812,7.6119385v0.0040283l0.5150146,111.9020386 c0.0270081,8.8579712-6.4649658,20.1030273-14.1820068,24.559021l-21.1279602,12.2339478 c-0.8569946,0.4960327-1.3880005,1.40802-1.3990479,2.3970337l-7.8959961,31.6779175l-13.875-18.5349121 c-0.8999939-0.7490234-2.184967-0.8590088-3.1979675-0.2709961l-49.1990051,28.4879761 c-3.2260132,1.8669434-6.2489929,2.2680054-8.2890015,1.0930176c-2.0460205-1.177063-3.177002-3.8830566-3.1879883-7.6210938 l-0.5170288-111.9019165C99.7704163,321.0419312,106.2633972,309.7990112,113.977417,305.3449707L113.977417,305.3449707z M100.7053833,454.282959c1.6560059,0.953064,3.5079956,1.4290161,5.4840088,1.4290161 c2.6380005,0,5.4960022-0.8479614,8.4070129-2.5290527l47.507019-27.5079346l15.085968,21.7319336 c0.8289795,0.6900024,1.9830017,0.8410034,2.9710083,0.3900757c0.9799805-0.4550171,1.6149902-1.4330444,1.6270142-2.5159912 l9.76297-36.6560669l19.7420044-11.4319458c9.5560303-5.5180054,17.0159912-18.4450684,16.9830017-29.434082 l-0.5140076-111.9069214c-0.0169983-5.8140259-2.1480103-10.2350464-5.9979858-12.4509888 c-3.8800049-2.2320557-8.809021-1.8390503-13.8950195,1.098999l-96.696991,55.9899902 c-9.5539856,5.5169678-17.0140076,18.44104-16.9849854,29.4289551l0.5189819,111.9030762 C94.721405,447.6389771,96.8513794,452.0649414,100.7053833,454.282959L100.7053833,454.282959z" fill="#0C5E96"/></g></g></svg>